<svg width="35" height="34" viewBox="0 0 35 34" fill="none" xmlns="http://www.w3.org/2000/svg">
<path d="M19.3943 4.45966L31.9855 25.6445C32.1775 25.9675 32.2786 26.334 32.2786 26.707C32.2786 27.08 32.1775 27.4464 31.9855 27.7695C31.7935 28.0925 31.5174 28.3608 31.1849 28.5473C30.8523 28.7338 30.4751 28.832 30.0911 28.832H4.90864C4.52465 28.832 4.14744 28.7338 3.81491 28.5473C3.48237 28.3608 3.20623 28.0925 3.01425 27.7695C2.82226 27.4464 2.72119 27.08 2.72119 26.707C2.72119 26.334 2.82227 25.9675 3.01426 25.6445L15.6055 4.45966C16.447 3.04299 18.5513 3.04299 19.3943 4.45966ZM17.4999 6.93882L6.17155 25.9987H28.8282L17.4999 6.93882ZM17.4999 21.25C17.8867 21.25 18.2576 21.3992 18.5311 21.6649C18.8046 21.9306 18.9582 22.2909 18.9582 22.6667C18.9582 23.0424 18.8046 23.4027 18.5311 23.6684C18.2576 23.9341 17.8867 24.0833 17.4999 24.0833C17.1131 24.0833 16.7422 23.9341 16.4687 23.6684C16.1952 23.4027 16.0416 23.0424 16.0416 22.6667C16.0416 22.2909 16.1952 21.9306 16.4687 21.6649C16.7422 21.3992 17.1131 21.25 17.4999 21.25ZM17.4999 11.3333C17.8867 11.3333 18.2576 11.4826 18.5311 11.7483C18.8046 12.0139 18.9582 12.3743 18.9582 12.75V18.4167C18.9582 18.7924 18.8046 19.1527 18.5311 19.4184C18.2576 19.6841 17.8867 19.8333 17.4999 19.8333C17.1131 19.8333 16.7422 19.6841 16.4687 19.4184C16.1952 19.1527 16.0416 18.7924 16.0416 18.4167V12.75C16.0416 12.3743 16.1952 12.0139 16.4687 11.7483C16.7422 11.4826 17.1131 11.3333 17.4999 11.3333Z" fill="white"/>
</svg>
