<svg width="479" height="417" viewBox="0 0 479 417" fill="none" xmlns="http://www.w3.org/2000/svg">
<path fill-rule="evenodd" clip-rule="evenodd" d="M239.713 44.1319C380.276 65.2527 478.3 137.015 478.3 251.592C478.3 388.924 356.523 246.232 272.553 326.301C188.583 406.37 9.68321 408.64 1.12551 251.592C-6.88556 104.574 99.1493 23.0112 239.713 44.1319Z" fill="#7001FD" fill-opacity="0.8"/>
<path fill-rule="evenodd" clip-rule="evenodd" d="M167.861 266.147L205.044 223.125L205.898 223.729C211.389 227.591 215.744 230.136 218.962 231.364L219.915 231.725C235.374 237.542 246.004 239.518 244.296 240.884L242.181 242.584C228.517 253.617 209.808 269.661 186.055 290.716C182.802 293.851 178.419 295.863 173.683 296.4L168.785 296.923C120.704 302.014 89.8568 302.453 78.5532 300.214C76.1925 299.747 68.9263 300.968 63.4403 305.897C55.2113 313.29 43.4435 331.1 41.4673 331.1C38.5943 331.1 41.3015 319.304 49.5889 295.711L50.4648 292.97C54.3258 280.996 57.1033 273.917 58.7975 271.732C60.6171 269.384 66.7637 273.528 77.2371 284.163L76.9532 285.546C78.3124 284.135 79.9238 282.635 81.7874 281.044L86.7357 280.514C104.218 278.616 117.506 276.88 126.601 275.306L127.558 275.138C137.412 273.391 150.846 270.394 167.861 266.147Z" fill="white"/>
<path fill-rule="evenodd" clip-rule="evenodd" d="M399.408 221.576L413.233 230.895C415.886 232.68 417.831 235.184 418.78 238.032L421.399 245.878C422.631 248.252 421.553 251.071 418.955 252.272L414.072 255.513C410.932 256.962 407.104 255.392 406.279 252.316L403.531 243.572C403.531 243.572 391.88 240.406 390.33 228.003L399.408 221.576Z" fill="white"/>
<path fill-rule="evenodd" clip-rule="evenodd" d="M332.771 68.5236C342.218 68.8675 346.965 80.4473 350.054 86.1714C351.106 88.1213 343.707 145.751 341.288 160.498C336.983 186.76 323.97 195.087 315.8 196.875C315.8 196.875 316.29 226.733 312.869 234.165C305.292 250.62 209.387 239.575 200.014 212.073C193.607 193.271 217.418 191.08 226.355 179.744C242.733 158.969 243.583 139.634 261.226 125.802C267.912 119.248 275.675 112.67 282.37 104.759L285.094 101.553C302.123 81.5972 315.091 68.3568 331.884 68.5035L332.771 68.5236Z" fill="white"/>
<path fill-rule="evenodd" clip-rule="evenodd" d="M285.404 118.477C283.839 119.152 281.55 119.361 280.735 117.99C278.173 113.686 270.335 113.094 267.004 116.953C270.201 115.97 273.926 115.032 276.785 116.647C277.581 117.096 278.268 117.726 278.948 118.349C280.081 119.388 281.194 120.408 282.754 120.545C283.914 120.646 285.018 120.21 286.117 119.775C287.297 119.308 288.47 118.844 289.7 119.051C291.065 119.281 292.022 120.252 292.979 121.223C293.933 122.192 294.888 123.161 296.247 123.396C297.36 123.588 298.478 123.231 299.586 122.877C300.824 122.482 302.05 122.09 303.242 122.474C304.664 122.933 305.314 124.244 305.965 125.557C306.612 126.862 307.26 128.169 308.669 128.639C309.504 128.917 310.406 128.816 311.296 128.661L312.179 128.5C314.26 128.129 316.507 128.096 318.411 128.934C320.047 129.654 321.336 131.144 321.441 132.735C321.483 132.392 321.521 132.049 321.554 131.707L321.884 129.771C319.996 127.789 317.03 126.668 314.125 126.84C313.627 126.87 313.129 126.935 312.632 127C311.675 127.125 310.72 127.25 309.77 127.121C308.327 126.924 306.861 125.826 307.104 124.539L307.126 124.401C307.391 122.246 304.162 121.01 301.681 121.191C301.154 121.23 300.614 121.292 300.071 121.356C298.002 121.596 295.886 121.842 294.261 120.778C293.634 120.367 293.149 119.791 292.668 119.222C291.996 118.424 291.333 117.638 290.301 117.327C289.161 116.985 288.002 117.344 286.878 117.822L286.504 117.984L285.404 118.477ZM267.409 133.463C268.486 134.755 270.703 134.031 272.414 133.472L272.503 133.443C277.092 131.946 282.622 133.114 285.975 136.29C287.814 138.032 290.535 137.545 293.352 137.041C295.705 136.62 298.125 136.187 300.154 137.032C301.103 137.426 301.983 138.094 302.846 138.748C304.427 139.947 305.949 141.101 307.721 140.448C311.082 139.209 315.207 139.87 317.907 142.038L317.897 142.721L317.885 144.228C315.203 141.824 310.859 141.045 307.349 142.339C305.576 142.993 304.055 141.839 302.473 140.64C301.611 139.985 300.73 139.318 299.781 138.923C297.752 138.079 295.332 138.512 292.979 138.933C290.162 139.436 287.441 139.923 285.603 138.182C282.316 135.069 276.94 133.885 272.407 135.248L271.502 135.538C269.889 136.05 268.003 136.515 267.037 135.354C263.987 131.693 257.864 130.41 253.313 132.478L253.902 130.491L254.171 130.381C258.663 128.611 264.467 129.93 267.409 133.463ZM256.961 149.788C255.274 150.406 253.09 151.206 251.959 149.951C249.898 147.665 245.188 147.498 237.831 149.451C238.393 149.792 239.844 149.758 241.634 149.717C245.004 149.638 249.575 149.532 251.668 151.854C252.683 152.98 254.547 152.451 256.138 151.884L257.03 151.563C261.5 150.045 266.923 151.044 270.341 154.042C272.253 155.719 274.951 155.139 277.744 154.539C280.078 154.037 282.478 153.521 284.541 154.295C285.506 154.657 286.415 155.294 287.305 155.918C288.937 157.062 290.507 158.163 292.25 157.449L292.492 157.354C294.467 156.609 298.262 157.865 301.701 159.004C304.203 159.833 306.517 160.599 307.806 160.487C299.833 156.291 294.745 154.645 292.541 155.547L292.366 155.613C290.692 156.186 289.173 155.121 287.597 154.016C286.706 153.392 285.798 152.755 284.833 152.393C282.769 151.619 280.369 152.134 278.036 152.636C275.243 153.236 272.545 153.816 270.633 152.139C267.145 149.08 261.57 148.102 257.048 149.756L256.961 149.788ZM272.59 219.058C274.613 220.219 277.232 221.723 279.103 220.897C282.408 219.44 288.363 220.733 296.968 224.778L297.796 225.171C296.953 225.31 295.059 224.79 292.724 224.148L292.724 224.148C288.326 222.938 282.361 221.298 278.899 222.825C277.219 223.566 274.937 222.429 273.024 221.349L271.953 220.741C266.903 217.968 260.08 217.032 254.793 218.34C253.098 218.971 250.737 218.233 248.143 217.421C246.379 216.868 244.507 216.282 242.662 216.07C240.388 215.81 239.217 215.966 238.189 216.104C237.157 216.242 236.27 216.36 234.558 216.018C233.234 215.753 231.118 214.925 228.211 213.535C223.057 211.322 213.924 211.59 209.117 213.128L208.858 213.208C203.719 214.728 203.762 213.063 208.929 211.33L209.321 211.201L209.63 211.106C215.122 209.47 225.292 209.649 230.615 212.703L230.72 212.763C232.742 213.924 235.362 215.428 237.233 214.602L237.371 214.547C238.68 214.066 241.742 214.074 242.691 214.13L242.866 214.143C246.062 214.46 246.757 214.719 247.516 215.215L248.06 215.583L248.371 215.69C249.526 216.093 250.751 216.568 252.046 217.118C252.582 217.075 253.198 216.949 253.926 216.716L254.235 216.621C259.726 214.985 267.162 215.944 272.485 218.998L272.59 219.058ZM248.797 164.191C249.994 165.446 252.305 164.646 254.089 164.028L254.182 163.996C258.965 162.342 264.863 163.32 268.553 166.379C270.576 168.056 273.43 167.476 276.384 166.876C278.853 166.374 281.392 165.859 283.575 166.633C284.596 166.995 285.557 167.632 286.499 168.256C288.167 169.361 289.774 170.426 291.545 169.853L291.73 169.787C294.061 168.885 299.444 170.531 307.879 174.727C306.515 174.839 304.067 174.073 301.42 173.244C297.782 172.105 293.768 170.849 291.678 171.594L291.422 171.689C289.578 172.403 287.917 171.302 286.191 170.158C285.249 169.534 284.288 168.897 283.267 168.535C281.084 167.761 278.545 168.277 276.076 168.779C273.121 169.379 270.267 169.959 268.244 168.282C264.629 165.284 258.891 164.285 254.162 165.803L253.218 166.124C251.536 166.691 249.564 167.22 248.489 166.094C246.275 163.772 241.44 163.878 237.874 163.957H237.874H237.874C235.981 163.998 234.446 164.032 233.851 163.691C241.635 161.738 246.617 161.905 248.797 164.191ZM247.583 179.692C245.531 180.31 242.872 181.109 241.495 179.855C238.986 177.569 233.254 177.402 224.299 179.355C224.984 179.696 226.75 179.662 228.928 179.621C233.03 179.542 238.593 179.436 241.141 181.757C242.377 182.884 244.646 182.355 246.582 181.788L247.667 181.467C253.109 179.949 259.71 180.948 263.87 183.946C266.197 185.623 269.481 185.043 272.881 184.443H272.881C275.721 183.941 278.642 183.425 281.154 184.199C282.328 184.561 283.434 185.198 284.518 185.823C286.504 186.966 288.415 188.067 290.536 187.353L290.831 187.258C293.236 186.513 297.854 187.769 302.04 188.908L302.04 188.908C305.086 189.737 307.902 190.503 309.471 190.391C299.767 186.195 293.573 184.549 290.891 185.451L290.678 185.517C288.641 186.09 286.792 185.025 284.873 183.92L284.873 183.92C283.789 183.295 282.683 182.658 281.509 182.297C278.997 181.523 276.076 182.038 273.235 182.54C269.836 183.14 266.552 183.72 264.225 182.043C259.98 178.984 253.193 178.006 247.69 179.66L247.583 179.692ZM231.645 191.959C233.189 193.214 236.17 192.414 238.472 191.796L238.592 191.764C244.764 190.11 252.375 191.088 257.135 194.147C259.746 195.824 263.428 195.244 267.241 194.644C270.426 194.142 273.702 193.627 276.519 194.401C277.836 194.762 279.077 195.399 280.292 196.024L280.292 196.024C282.444 197.129 284.518 198.194 286.803 197.621L287.042 197.555C290.05 196.653 296.995 198.299 307.879 202.495C306.12 202.607 302.961 201.841 299.546 201.012L299.545 201.012L299.545 201.012L299.545 201.012C294.851 199.873 289.671 198.617 286.975 199.362L286.644 199.457C284.265 200.171 282.121 199.07 279.894 197.926L279.894 197.926C278.679 197.302 277.439 196.665 276.122 196.303C273.304 195.529 270.028 196.045 266.843 196.547H266.843C263.03 197.147 259.348 197.727 256.738 196.05C252.072 193.052 244.669 192.053 238.566 193.571L237.349 193.892C235.178 194.459 232.633 194.988 231.247 193.862C228.39 191.54 222.151 191.646 217.55 191.725C215.107 191.766 213.127 191.8 212.359 191.459C222.402 189.506 228.831 189.673 231.645 191.959ZM231.308 202.476C229.007 203.094 226.025 203.894 224.481 202.639C221.667 200.353 215.238 200.186 205.195 202.139C205.963 202.48 207.943 202.446 210.386 202.405C214.987 202.326 221.226 202.22 224.083 204.541C225.469 205.668 228.014 205.139 230.185 204.572L231.402 204.251C237.111 202.831 243.958 203.614 248.637 206.174C250.072 207.199 252.569 207.071 255.313 206.93C257.179 206.834 259.159 206.732 260.998 206.983C263.264 207.293 264.341 207.733 265.287 208.118C266.236 208.505 267.053 208.838 268.804 208.931C270.836 209.039 275.67 208.109 275.67 208.109C281.307 207.252 290.003 209.762 294.15 212.426L294.374 212.566C298.956 215.361 299.338 213.601 294.547 210.523L294.28 210.355C289.505 207.429 279.673 205.093 273.616 206.716L273.496 206.748C271.194 207.366 268.213 208.165 266.669 206.911C265.592 206.036 262.074 205.184 261.395 205.081C257.811 204.534 257.324 204.705 256.236 205.088C256.206 205.098 256.176 205.109 256.145 205.119C256.124 205.127 256.103 205.134 256.081 205.142C256.041 205.156 256.001 205.17 255.959 205.184L255.627 205.21C254.393 205.312 253.069 205.468 251.654 205.677C251.153 205.503 250.599 205.23 249.971 204.827L249.704 204.659C244.929 201.733 237.485 200.821 231.428 202.444L231.308 202.476Z" fill="#FFB61D"/>
<path fill-rule="evenodd" clip-rule="evenodd" d="M329.723 77.1929C343.153 77.2342 353.752 87.4252 352.846 99.4225C352.846 99.4225 337.186 160.362 345.123 182.022C348.194 190.402 392.529 216.478 390.655 219.157L384.399 232.565C382.176 235.739 314.128 195.023 314.128 195.023C307.599 190.388 306.385 98.2243 306.385 98.2243C306.257 86.617 316.758 77.1521 329.723 77.1929Z" fill="white"/>
<path d="M400.211 221.576L392.214 236.305L392.055 236.699C391.389 238.225 388.846 239.159 388.519 239.234L388.471 239.234L383.748 236.734C383.207 236.328 382.911 234.047 383.483 231.926L383.617 231.48C383.617 231.48 387.361 219.716 390.463 216.746C392.271 215.013 402.716 216.746 400.211 221.576Z" fill="white"/>
<path fill-rule="evenodd" clip-rule="evenodd" d="M286.288 357.409H267.196C267.196 357.409 289.602 305.376 289.602 291.721C289.602 287.486 271.99 293.867 274.545 287.486C278.058 278.712 290.215 263.022 287.221 255.146C284.089 246.91 272.409 243.925 262.237 240.587C260.288 239.948 295.844 242.156 305.596 235.217C318.461 226.063 308.016 205.849 311.471 212.976C315.639 221.576 342.725 243.149 337.356 266.511C332.125 289.27 286.288 357.409 286.288 357.409Z" fill="white"/>
<path fill-rule="evenodd" clip-rule="evenodd" d="M279.67 367.442L277.708 366.86C277.621 366.834 277.611 366.714 277.693 366.674L279.564 365.765V363.659C279.564 363.576 279.66 363.529 279.726 363.581L281.301 364.818L283.896 363.596C283.986 363.554 284.076 363.654 284.024 363.739L282.563 366.123L285.342 368.72C285.418 368.791 285.349 368.916 285.249 368.89L281.403 367.898L279.854 370.339C279.8 370.423 279.67 370.385 279.67 370.285V369.036V367.442Z" fill="#FFB61D"/>
<path fill-rule="evenodd" clip-rule="evenodd" d="M228.8 254.937L228.8 254.937C227.248 256.412 225.697 257.886 224.079 259.301C221.053 261.948 217.996 264.581 214.784 267.043C210.8 270.098 206.716 273.059 202.541 275.901C197.815 279.117 192.976 282.203 188.116 285.254C187.858 285.416 187.6 285.58 187.343 285.743C184.864 287.316 182.386 288.888 179.201 289.373C178.292 289.512 177.441 289.92 176.584 290.331C175.903 290.658 175.218 290.986 174.497 291.182C169.529 292.529 164.535 293.812 159.51 294.976C156.425 295.69 153.275 296.2 150.133 296.69C148.177 296.995 136.974 298.587 129.522 299.555C122.069 300.522 97.421 300.522 91.2674 300.407C87.8143 300.343 84.3619 300.236 80.9105 300.118L80.7323 300.112C80.0289 300.09 79.2815 300.066 78.6705 299.819C75.2806 298.445 72.6578 299.941 69.9998 301.457L69.8085 301.566C66.3189 303.554 64.1831 306.546 62.0728 309.609C60.9516 311.237 59.7637 312.828 58.5758 314.418L58.5757 314.419L58.5753 314.419C57.297 316.131 56.0188 317.843 54.8238 319.6C53.2418 321.927 51.8308 324.349 50.4214 326.769C50.1679 327.204 49.9145 327.639 49.6602 328.073C47.7969 331.255 45.0017 333.106 40.9912 333.79C38.9979 334.131 37.2904 333.601 35.587 333.073L35.586 333.073C34.9551 332.878 34.3247 332.682 33.6805 332.531C32.4192 332.236 31.4024 329.187 31.8523 327.98C33.1646 324.461 34.4795 320.942 35.7945 317.424L35.7955 317.421L35.7964 317.419L35.7966 317.418C38.5463 310.06 41.296 302.702 44.0217 295.337C45.925 290.195 47.7834 285.038 49.6417 279.882L49.6429 279.879C50.1675 278.423 50.6922 276.968 51.2179 275.512C51.4682 274.819 51.706 274.122 51.9438 273.425L51.9441 273.424L51.9442 273.424C52.3385 272.268 52.7328 271.113 53.1841 269.975C53.332 269.602 53.9439 269.143 54.36 269.128C57.3669 269.02 60.2539 269.679 62.9968 270.686C68.1825 272.589 72.1729 275.8 75.1021 280.074C75.8787 281.207 77.2343 281.615 78.9441 281.345C79.7689 281.215 80.6014 281.116 81.4334 281.018L81.4343 281.018C82.7048 280.868 83.9745 280.718 85.215 280.454C87.9748 279.868 90.7684 279.849 93.5611 279.829C95.3592 279.816 97.157 279.803 98.9452 279.639C100.171 279.527 101.403 279.463 102.635 279.399L102.637 279.399L102.638 279.399L102.64 279.398L102.641 279.398L102.643 279.398L102.644 279.398L102.645 279.398C104.295 279.312 105.943 279.226 107.575 279.026C110.542 278.661 113.494 278.201 116.446 277.741L116.447 277.74L116.449 277.74L116.45 277.74L116.451 277.74L116.452 277.74L116.454 277.739L116.455 277.739C117.856 277.521 119.256 277.303 120.658 277.095C121.791 276.926 122.927 276.767 124.062 276.608L124.063 276.608L124.063 276.608L124.064 276.608L124.065 276.608L124.066 276.608L124.067 276.608L124.068 276.608L124.072 276.607L124.074 276.607C126.264 276.3 128.453 275.994 130.629 275.62C133.415 275.142 136.179 274.559 138.942 273.976L139.443 273.87L139.939 273.765C142.859 273.15 145.775 272.516 148.69 271.881C149.915 271.614 151.14 271.348 152.365 271.083C152.557 271.041 152.748 270.996 152.94 270.952C152.92 270.942 152.899 270.933 152.879 270.923L152.833 270.902L152.74 270.859C152.595 270.792 152.451 270.725 152.312 270.649C151.888 270.415 151.451 270.193 151.014 269.972C150.017 269.466 149.019 268.961 148.169 268.302C146.26 266.82 146.913 264.359 149.34 263.703C151.19 263.203 153.096 262.702 155.006 262.587C157.58 262.432 159.924 261.668 162.271 260.903L162.271 260.903L162.272 260.902L162.272 260.902L162.272 260.902L162.272 260.902L162.273 260.902L162.273 260.902C163.215 260.595 164.158 260.287 165.116 260.019C167.379 259.386 168.736 258.195 169.872 256.373C170.419 255.496 171.221 254.751 172.026 254.004L172.026 254.003L172.026 254.003C172.593 253.477 173.161 252.949 173.644 252.372C176.146 249.381 178.578 246.342 180.947 243.265C181.45 242.611 181.854 241.896 182.258 241.181L182.258 241.181L182.258 241.181L182.258 241.181L182.258 241.181L182.259 241.181L182.259 241.18L182.259 241.18C182.568 240.633 182.877 240.086 183.232 239.565C184.063 238.343 184.908 237.106 185.935 236.018L186.07 235.875C188.424 233.378 190.785 230.873 193.346 228.551C194.742 227.285 196.282 226.147 197.823 225.009C198.551 224.471 199.28 223.934 199.993 223.383C200.352 223.104 200.698 222.803 201.001 222.475C201.52 221.913 201.734 221.445 200.95 220.78C200.746 220.607 200.541 220.435 200.336 220.262L200.335 220.262C198.288 218.54 196.222 216.803 195.104 214.421C194.986 214.172 194.868 213.922 194.75 213.672C193.852 211.776 192.945 209.862 192.434 207.877C191.747 205.205 192.024 202.484 192.914 199.791C194.161 196.023 196.77 193.168 200.304 191.118C202.484 189.854 204.778 188.748 207.073 187.642C208.773 186.823 210.474 186.003 212.129 185.118C213.409 184.435 214.503 183.439 215.571 182.469C215.673 182.376 215.775 182.283 215.877 182.191C220.684 177.841 224.034 172.577 227.371 167.332C227.726 166.775 228.08 166.217 228.436 165.662C231.662 160.627 234.557 155.417 237.442 150.214C238.273 148.716 238.985 147.165 239.698 145.614L239.698 145.614C240.327 144.243 240.957 142.872 241.669 141.536C242.232 140.481 242.925 139.482 243.62 138.483L243.62 138.483L243.62 138.483L243.62 138.482L243.62 138.482L243.621 138.482L243.621 138.482L243.621 138.481C244.131 137.748 244.641 137.014 245.099 136.256C245.592 135.443 246.041 134.608 246.49 133.772L246.49 133.772L246.491 133.771L246.491 133.771L246.491 133.771L246.492 133.77L246.492 133.77L246.492 133.769C247.174 132.502 247.854 131.237 248.683 130.052C249.274 129.206 250.133 128.509 250.99 127.812L250.99 127.812C251.349 127.52 251.707 127.229 252.046 126.927C252.468 126.55 252.898 126.18 253.328 125.81C253.776 125.424 254.224 125.038 254.664 124.645C255.439 123.951 256.204 123.248 256.947 122.527C258.375 121.141 259.811 119.76 261.247 118.38C264.788 114.976 268.328 111.573 271.752 108.077C275.763 103.981 279.579 99.7254 283.327 95.4324C284.817 93.7255 286.161 91.9156 287.504 90.1057C288.102 89.2996 288.7 88.4936 289.312 87.6966C289.319 87.6872 289.326 87.6775 289.333 87.6677C289.34 87.6573 289.347 87.6468 289.353 87.6362C289.362 87.6225 289.371 87.6085 289.379 87.5945L289.403 87.5533L289.403 87.553C289.443 87.4828 289.484 87.4128 289.541 87.3563C290.511 86.401 291.47 85.4367 292.43 84.4724L292.432 84.47L292.432 84.4698C294.687 82.2035 296.942 79.937 299.328 77.7871C302.868 74.5972 306.923 71.9522 311.324 69.7493C311.996 69.4134 312.643 69.032 313.289 68.6511C314.308 68.051 315.324 67.4522 316.428 67.0344C316.689 66.9357 316.952 66.8348 317.216 66.7332C319.326 65.9223 321.538 65.0723 323.716 65.0324C328.312 64.9482 333.089 64.9947 336.947 67.9004C337.678 68.4509 337.873 68.3212 337.942 67.5848C338.007 66.8817 338.141 66.1575 338.274 65.4331C338.585 63.7456 338.896 62.0567 338.354 60.6285C338.027 59.7651 337.912 58.8937 337.799 58.0298C337.67 57.0527 337.543 56.0853 337.111 55.1498C335.664 52.0228 334.372 48.8372 333.082 45.6531C332.887 45.1737 332.693 44.6943 332.498 44.2152C332.094 43.2214 331.766 42.1776 331.616 41.1322C331.509 40.3851 331.473 39.6297 331.437 38.8743C331.4 38.099 331.363 37.3237 331.249 36.5575C330.844 33.8322 331.9 31.4376 332.96 29.0335L332.961 29.0318C333.155 28.5935 333.348 28.1548 333.533 27.7137C335.786 22.3346 340.008 18.2664 344.566 14.446C348.491 11.1568 354.992 10.1219 360.25 9.31081C362.192 9.01121 375.823 8.72465 383.022 8.57332C385.37 8.52394 387.034 8.48896 387.384 8.47263C388.803 8.40624 389.765 7.81549 390.727 7.18124C392.711 5.87214 393.221 3.84183 393.722 1.84395L393.723 1.8394C393.772 1.64393 393.821 1.44879 393.872 1.25466C393.882 1.2158 393.891 1.17762 393.901 1.1402L393.903 1.13139L393.906 1.1188L393.907 1.11529C394.036 0.59139 394.127 0.224154 395.008 0.25061C397.947 0.338907 399.459 2.05597 400.898 4.01802C402.519 6.22744 403.832 8.53124 404.283 11.1648C404.832 14.3714 404.537 17.35 401.988 19.9907C399.914 22.1384 397.501 23.7798 394.775 25.1572C394.413 25.34 394.184 26.3083 394.385 26.7219C396.439 30.9606 396.592 35.4291 396.391 39.9152C396.342 41.0041 396.145 42.0872 395.948 43.1706L395.948 43.1708C395.761 44.1973 395.574 45.224 395.513 46.2561C395.339 49.2163 396.016 52.0634 397.343 54.8164C398.244 56.684 397.611 58.4527 396.101 59.9206C395.842 60.172 395.52 60.3825 395.2 60.5912C394.751 60.8848 394.306 61.1748 394.053 61.5703C393.479 62.4651 393.079 63.5417 392.986 64.568C392.915 65.3534 393.009 66.1491 393.104 66.9465C393.162 67.442 393.221 67.9382 393.24 68.433C393.314 70.338 392.504 71.9674 391.412 73.5936C389.435 76.5364 386.825 78.7015 383.038 79.4103C379.794 80.0176 376.424 80.0537 373.291 79.0985C369.734 78.0141 366.266 76.6261 362.919 75.0907C361.969 74.6547 361.216 73.8714 360.464 73.0886C360.128 72.7384 359.792 72.3883 359.438 72.0694C358.914 71.5972 358.649 71.4601 357.952 72.1199C355.464 74.477 353.656 77.1545 352.194 80.1108C351.387 81.7423 351.91 83.0833 352.467 84.5118L352.533 84.68C352.586 84.8159 352.639 84.9517 352.692 85.0875C353.464 87.0652 354.233 89.0332 354.173 91.1972C354.143 92.2698 354.167 93.3455 354.19 94.4206V94.4213C354.226 96.1198 354.263 97.8169 354.091 99.4982C353.907 101.297 353.455 103.074 353.004 104.85C352.822 105.565 352.641 106.28 352.477 106.997C352.302 107.757 352.132 108.518 351.961 109.279C351.445 111.581 350.929 113.883 350.312 116.163C350.026 117.219 349.634 118.25 349.242 119.282L349.242 119.282L349.242 119.283L349.242 119.283L349.241 119.283L349.241 119.284L349.241 119.284L349.241 119.284L349.241 119.284L349.241 119.285C348.92 120.129 348.599 120.973 348.336 121.831C348.032 122.826 347.723 123.82 347.414 124.814C346.214 128.68 345.013 132.548 344.041 136.46C343.209 139.81 342.729 143.256 342.45 146.683C342.275 148.825 342.301 150.981 342.328 153.136C342.342 154.328 342.357 155.521 342.338 156.711C342.323 157.611 342.271 158.511 342.218 159.41C342.152 160.554 342.086 161.697 342.096 162.84C342.101 163.297 342.104 163.753 342.108 164.21V164.211V164.211V164.211V164.212V164.212V164.212V164.213C342.13 167.231 342.152 170.255 342.449 173.254C342.745 176.247 343.379 179.23 344.113 182.167C344.716 184.579 346.565 186.444 348.401 188.193C349.355 189.102 350.414 189.924 351.474 190.745L351.474 190.745L351.474 190.746L351.474 190.746L351.474 190.746L351.475 190.746L351.475 190.746L351.475 190.747C352.216 191.322 352.958 191.897 353.664 192.503C354.148 192.918 354.584 193.381 355.019 193.843C355.561 194.418 356.101 194.991 356.732 195.472C358.792 197.039 360.887 198.57 362.982 200.1L362.985 200.102L362.986 200.103L362.987 200.104L362.988 200.105L362.99 200.106L362.991 200.106L362.992 200.107L362.993 200.108C364.58 201.268 366.167 202.427 367.739 203.602C369.152 204.659 370.543 205.737 371.934 206.816C373.341 207.907 374.747 208.997 376.175 210.064C378.126 211.522 380.105 212.96 382.173 214.282C383.146 214.904 384.165 215.468 385.184 216.033L385.185 216.033L385.185 216.033L385.186 216.034L385.186 216.034L385.187 216.034L385.187 216.035L385.188 216.035C386.241 216.618 387.294 217.202 388.296 217.849C389.5 218.626 390.434 218.188 391.363 217.753C391.683 217.603 392.003 217.454 392.332 217.354C395.009 216.545 397.127 216.851 398.132 219.154C398.333 219.615 398.64 220.03 398.949 220.448C399.511 221.207 400.08 221.975 400.031 223.047C400.016 223.382 400.825 223.782 401.518 224.125C401.684 224.207 401.843 224.285 401.983 224.359C404.022 225.435 406.087 226.475 408.152 227.512C408.592 227.733 409.049 227.935 409.504 228.137C410.381 228.525 411.256 228.912 412.017 229.435C412.793 229.967 413.497 230.583 414.201 231.199C414.907 231.816 415.613 232.433 416.392 232.966C417.994 234.064 418.902 235.574 419.805 237.075C420.137 237.627 420.467 238.176 420.831 238.704C421.837 240.162 422.418 241.951 422.752 243.661C423.203 245.965 423.386 248.335 423.375 250.676C423.371 251.655 422.707 252.705 422.098 253.586C421.442 254.537 420.458 254.672 419.51 253.754C419.432 253.678 419.323 253.629 419.214 253.58C419.164 253.557 419.113 253.534 419.066 253.509C419.058 253.566 419.052 253.624 419.045 253.681L419.038 253.74C419.031 253.799 419.024 253.858 419.016 253.916C419.01 253.962 419.003 254.007 418.996 254.053C418.936 254.446 418.887 254.843 418.839 255.239C418.72 256.216 418.601 257.193 418.295 258.119C418.089 258.741 417.198 259.561 416.58 259.588C416.105 259.608 415.606 259.212 415.111 258.821C414.913 258.664 414.715 258.508 414.52 258.379C414.329 258.253 414.167 258.09 414.008 257.929L413.957 257.878C413.857 257.778 413.769 257.668 413.68 257.559L413.632 257.5L413.612 257.476C413.595 257.455 413.578 257.435 413.561 257.414C413.531 257.471 413.502 257.528 413.472 257.584C413.408 257.708 413.344 257.832 413.275 257.954C413.186 258.111 413.108 258.278 413.03 258.446C412.854 258.823 412.679 259.201 412.377 259.458C411.21 260.452 409.641 260.064 409.16 258.669C408.91 257.944 408.702 257.207 408.495 256.47L408.495 256.469L408.494 256.469L408.494 256.468L408.494 256.468L408.494 256.467L408.494 256.467C408.206 255.445 407.918 254.423 407.519 253.437C407.354 253.03 407.218 252.615 407.082 252.2C406.684 250.987 406.285 249.771 405.168 248.748C404.363 248.012 403.871 246.996 403.381 245.986C403.19 245.592 403 245.199 402.791 244.824C401.538 242.565 399.466 241.088 397.071 239.896C396.419 239.572 395.77 239.215 395.204 238.785C393.948 237.831 393.079 238.351 392.315 239.322C391.053 240.928 388.96 241.519 387.014 240.594C384.032 239.177 381.596 237.316 380.786 234.129C380.636 233.539 379.663 233.019 378.949 232.658C376.802 231.575 374.641 230.512 372.481 229.449C368.898 227.686 365.315 225.923 361.793 224.069C357.398 221.755 353.116 219.266 348.838 216.779C348.408 216.529 347.978 216.279 347.548 216.029C340.804 212.112 334.086 208.16 327.367 204.208L327.354 204.201C326.041 203.428 324.728 202.656 323.415 201.884C321.94 201.017 320.475 200.136 319.01 199.255L319.003 199.251C317.984 198.638 316.965 198.025 315.943 197.417C315.533 197.173 315.1 196.954 314.656 196.766C313.33 196.206 312.94 196.408 312.834 197.679C312.83 197.727 312.835 197.774 312.834 197.822C312.809 199.375 312.785 200.928 312.76 202.482L312.75 203.148C312.673 208.072 312.596 212.997 312.514 217.921C312.488 219.491 313.407 220.694 314.313 221.88L314.315 221.882C314.498 222.122 314.68 222.361 314.854 222.602C318.049 227.028 321.311 231.417 324.605 235.786C325.508 236.984 326.445 238.164 327.382 239.343L327.382 239.344L327.383 239.344L327.383 239.345L327.384 239.346L327.384 239.346L327.385 239.347L327.385 239.348C328.797 241.125 330.209 242.903 331.506 244.745C332.165 245.68 332.559 246.765 332.952 247.85C333.125 248.326 333.297 248.802 333.492 249.266C333.55 249.402 333.61 249.539 333.67 249.675C333.703 249.749 333.736 249.824 333.769 249.898C334.022 250.465 334.275 251.032 334.434 251.619C335.717 256.368 335.139 261.08 333.871 265.74C333.786 266.052 333.701 266.365 333.617 266.677L333.616 266.678C332.829 269.589 332.038 272.513 330.889 275.312C329.968 277.556 328.817 279.725 327.666 281.894C327.112 282.939 326.558 283.984 326.029 285.038C325.106 286.878 324.213 288.73 323.331 290.586C321.835 293.732 320.347 296.882 318.876 300.038C318.343 301.182 317.828 302.333 317.312 303.485L317.31 303.489C316.277 305.797 315.244 308.105 314.069 310.354C312.378 313.591 310.498 316.751 308.62 319.908L308.62 319.909L308.62 319.91L308.62 319.91L308.619 319.911L308.619 319.911L308.619 319.912L308.619 319.912C308.349 320.366 308.079 320.819 307.81 321.273C306.636 323.252 305.434 325.216 304.231 327.181C303.067 329.083 301.902 330.984 300.765 332.898C299.727 334.644 298.717 336.403 297.708 338.162C296.628 340.043 295.548 341.924 294.435 343.788C292.853 346.436 291.196 349.049 289.49 351.634C288.07 353.785 288.481 354.788 290.124 356.769C291.905 358.917 294.673 359.635 297.418 360.196C304.948 361.735 312.494 363.21 320.04 364.686L320.419 364.76C321.179 364.909 321.949 365.019 322.718 365.13C323.583 365.255 324.448 365.379 325.299 365.557C329.549 366.448 331.682 369.244 332.819 372.713C333.546 374.933 333.761 377.316 331.785 379.16C331.038 379.857 329.675 380.375 328.59 380.378C314.614 380.42 300.638 380.427 286.662 380.434C277.86 380.439 269.057 380.443 260.254 380.456C259.228 380.458 259.154 380.182 259.076 379.375C258.997 378.554 258.834 377.735 258.67 376.917C258.431 375.715 258.192 374.516 258.222 373.32C258.363 367.573 260.615 362.425 264.555 357.905C264.839 357.58 265.3 357.363 265.755 357.15C266.261 356.913 266.76 356.679 266.998 356.303C268.147 354.486 269.132 352.553 269.887 350.576C271.096 347.409 272.297 344.213 273.073 340.947C273.429 339.447 273.944 337.993 274.459 336.537C275.1 334.728 275.741 332.917 276.08 331.013C276.437 329.002 277.372 327.066 278.3 325.14C278.588 324.543 278.876 323.947 279.146 323.35C280.066 321.313 281.016 319.287 281.966 317.26L281.967 317.26L281.967 317.259L281.967 317.258L281.968 317.258L281.968 317.257L281.968 317.256L281.968 317.256C283.444 314.109 284.92 310.962 286.283 307.776C287.254 305.504 288.059 303.175 288.865 300.847C289.325 299.517 289.784 298.188 290.275 296.869C291.313 294.078 292.368 291.288 293.558 288.548C293.825 287.932 293.675 287.921 293.299 287.895C293.23 287.89 293.152 287.884 293.068 287.874C288.049 287.278 283.105 287.33 278.425 289.328C277.399 289.766 276.677 289.675 275.998 288.913C275.304 288.134 275.665 287.566 276.279 286.851C279.937 282.59 282.209 277.737 283.952 272.617C284.134 272.082 284.322 271.547 284.509 271.014L284.51 271.012L284.51 271.01C285.643 267.784 286.771 264.567 286.741 261.138C286.717 258.541 286.002 256.21 284.005 254.038C283.567 253.56 283.163 253.06 282.762 252.562C281.564 251.075 280.383 249.609 278.328 248.842C277.287 248.453 276.261 248.035 275.234 247.616L275.233 247.616L275.232 247.615C274.165 247.18 273.097 246.745 272.014 246.343C271.194 246.04 270.374 245.733 269.555 245.427L269.552 245.425L269.549 245.424L269.546 245.423L269.543 245.422L269.543 245.422C266.3 244.209 263.055 242.995 259.747 241.946C257.737 241.308 255.656 240.853 253.574 240.397L253.574 240.397C252.628 240.189 251.682 239.982 250.743 239.758C250.558 239.714 250.376 239.662 250.193 239.61C250.048 239.568 249.902 239.527 249.755 239.489C247.616 238.943 245.749 239.038 244.296 240.884C243.659 241.694 242.784 242.353 241.867 243.044C241.684 243.182 241.501 243.32 241.317 243.461C237.861 246.509 234.56 249.553 231.271 252.607C230.441 253.378 229.62 254.157 228.8 254.937ZM310.078 198.847L310.078 198.847L310.078 198.846C310.262 198.022 310.446 197.198 310.546 196.365L310.574 196.133C310.79 194.347 311.008 192.536 310.866 190.76C310.792 189.84 310.518 188.936 310.244 188.03C310.022 187.296 309.799 186.56 309.682 185.815C309.068 181.893 308.515 177.961 308.089 174.02C307.718 170.593 307.471 167.155 307.224 163.717L307.18 163.099L307.12 162.275C306.871 158.844 306.64 155.411 306.49 151.976C306.346 148.683 306.275 145.387 306.204 142.092V142.091L306.186 141.303L306.173 140.705C306.169 140.497 306.248 140.29 306.327 140.08L306.327 140.08C306.378 139.947 306.429 139.813 306.459 139.678C306.492 139.526 306.533 139.373 306.574 139.219C306.688 138.795 306.802 138.368 306.76 137.956C306.713 137.502 306.599 137.05 306.485 136.599C306.331 135.988 306.177 135.379 306.194 134.771C306.307 130.743 306.511 126.718 306.714 122.692L306.714 122.689C306.744 122.097 306.774 121.505 306.804 120.913C306.847 120.048 306.971 119.183 307.119 118.326C307.535 115.907 307.967 113.491 308.4 111.074L308.539 110.298L308.704 109.377C308.739 109.18 308.786 108.985 308.833 108.791C308.855 108.7 308.877 108.61 308.898 108.519C308.91 108.619 308.926 108.719 308.942 108.818L308.942 108.821C308.976 109.037 309.01 109.254 309.015 109.47C309.115 113.981 309.208 118.492 309.302 123.002L309.337 124.728C309.368 126.202 309.399 127.676 309.431 129.15L309.434 129.28C309.511 132.896 309.589 136.511 309.652 140.127C309.694 142.521 309.727 144.916 309.76 147.31C309.82 151.663 309.88 156.015 309.995 160.367C310.081 163.613 310.311 166.86 310.633 170.095C310.869 172.468 311.214 174.833 311.559 177.197L311.559 177.198L311.56 177.202L311.56 177.206L311.561 177.21C311.67 177.956 311.779 178.702 311.884 179.448C312.032 180.496 312.193 181.543 312.355 182.591C312.637 184.421 312.919 186.252 313.13 188.089C313.397 190.424 314.653 192.314 316.461 193.811C317.78 194.903 319.267 195.834 320.754 196.764L320.756 196.765L320.758 196.766L320.76 196.768L320.762 196.769L320.764 196.77L320.766 196.771L320.768 196.773C321.35 197.137 321.933 197.501 322.504 197.876C323.709 198.664 324.909 199.459 326.108 200.254L326.109 200.255C329.119 202.25 332.129 204.245 335.222 206.13C337.984 207.815 340.828 209.393 343.671 210.971L343.672 210.971L343.672 210.971L343.673 210.972L343.673 210.972L343.674 210.972L343.674 210.973L343.675 210.973L343.675 210.973L343.676 210.973L343.676 210.974L343.677 210.974L343.677 210.974L343.677 210.974L343.678 210.975C345.054 211.739 346.431 212.503 347.799 213.279C349.114 214.025 350.424 214.779 351.734 215.532C354.062 216.871 356.39 218.211 358.746 219.509L359.191 219.754C363.509 222.133 367.832 224.515 372.253 226.734C374.355 227.788 376.584 228.645 378.808 229.499L378.808 229.5C379.379 229.719 379.949 229.938 380.517 230.16C380.847 230.289 381.607 230.141 381.764 229.906C382.134 229.349 382.375 228.719 382.614 228.094L382.616 228.087L382.618 228.083C382.664 227.962 382.71 227.84 382.758 227.72C383.687 225.348 384.863 223.133 386.87 221.286C388.384 219.892 388.171 219.473 386.068 218.681C385.959 218.64 385.85 218.6 385.742 218.559L385.718 218.55L385.714 218.549C384.835 218.22 383.948 217.889 383.15 217.439C381.667 216.602 380.225 215.694 378.84 214.731C377.61 213.877 376.376 213.025 375.143 212.174L375.141 212.172L375.14 212.171L375.139 212.171L375.139 212.171L375.138 212.17L375.138 212.17L375.137 212.17C370.98 209.299 366.823 206.428 362.78 203.434C359.016 200.645 355.438 197.639 351.934 194.585C351.446 194.16 350.953 193.738 350.46 193.316L350.459 193.316C347.478 190.767 344.484 188.206 342.593 184.824C342.334 184.361 342.034 183.914 341.734 183.467C340.864 182.171 339.994 180.875 340.123 179.172C340.201 178.131 340.045 177.073 339.89 176.018L339.889 176.017L339.889 176.015L339.889 176.014L339.889 176.012C339.833 175.632 339.777 175.253 339.732 174.874C339.61 173.845 339.465 172.817 339.32 171.789L339.32 171.788C339.023 169.687 338.727 167.587 338.627 165.478C338.492 162.631 338.523 159.777 338.554 156.923V156.922C338.567 155.693 338.58 154.465 338.58 153.237C338.58 152.948 338.571 152.659 338.561 152.369C338.54 151.738 338.52 151.106 338.597 150.485C338.975 147.458 339.36 144.429 339.869 141.419C339.969 140.831 340.066 140.241 340.163 139.652C340.637 136.769 341.113 133.879 341.897 131.063C342.581 128.608 343.422 126.189 344.262 123.769L344.262 123.769L344.263 123.768L344.263 123.768L344.263 123.767L344.263 123.767L344.263 123.766L344.263 123.765L344.264 123.764C344.929 121.849 345.594 119.934 346.182 118.001C346.605 116.61 347.071 115.229 347.537 113.847C348.704 110.39 349.871 106.931 350.366 103.314C350.474 102.526 350.697 101.741 350.92 100.958C351.247 99.8071 351.572 98.6619 351.527 97.522C351.363 93.4036 350.08 89.4351 348.789 85.4736C346.86 79.5556 343.514 74.6197 337.726 71.1066C334.386 69.0797 330.887 67.5954 326.743 68.0723C325.241 68.2453 323.753 68.5226 322.265 68.7999L322.265 68.7999L322.265 68.8L322.264 68.8L322.264 68.8001L322.263 68.8002L322.263 68.8003L322.263 68.8003L322.262 68.8004C321.547 68.9337 320.832 69.0669 320.116 69.1886C316.044 69.8797 312.441 71.4872 309.196 73.7468C307.297 75.0695 305.442 76.4492 303.638 77.8754C301.835 79.3014 300.032 80.7436 298.389 82.3131C296.861 83.7724 295.439 85.3224 294.019 86.8712L294.019 86.8714L294.018 86.8716L294.018 86.8718L294.018 86.8721L294.018 86.8723L294.018 86.8725L294.017 86.8727L294.012 86.8789L294.009 86.8815C293.703 87.2156 293.397 87.5497 293.089 87.8827C290.647 90.5286 288.212 93.1801 285.823 95.8644C284.778 97.0391 283.754 98.2293 282.73 99.4195L282.729 99.42L282.729 99.4205L282.728 99.4209L282.728 99.4214L282.728 99.4219L282.727 99.4224L282.727 99.4229C281.178 101.223 279.629 103.023 278.007 104.77C275.065 107.936 272.012 111.023 268.914 114.068C264.656 118.252 260.324 122.376 255.993 126.499C255.623 126.851 255.198 127.157 254.774 127.463C254.265 127.83 253.757 128.197 253.348 128.639C250.212 132.025 247.258 135.557 245.162 139.546C243.229 143.224 241.366 146.932 239.503 150.64C237.829 153.973 236.155 157.306 234.43 160.617C231.633 165.985 228.555 171.213 224.84 176.148L224.567 176.511C222.577 179.158 220.586 181.807 217.782 183.736C214.126 186.25 210.32 188.591 206.515 190.931L206.512 190.932L206.509 190.934L206.506 190.936L206.503 190.938C205.514 191.546 204.525 192.155 203.539 192.766C200.33 194.755 197.79 197.265 196.541 200.571C195.008 204.631 195.792 208.663 197.933 212.363C200.568 216.918 204.738 220.399 208.995 223.716C213.72 227.397 219.21 230.037 225.134 231.734C232.749 233.915 240.407 236.033 248.46 236.651C250.566 236.813 252.664 237.06 254.762 237.307L254.763 237.307C257.102 237.582 259.441 237.857 261.791 238.014C266.987 238.361 272.205 238.554 277.416 238.58C279.759 238.591 282.102 238.446 284.447 238.3C285.935 238.208 287.423 238.115 288.912 238.063C292.959 237.921 296.793 236.969 300.569 235.768C303.106 234.961 305.454 233.851 306.381 231.401C306.921 229.974 307.189 228.447 307.411 226.945L307.468 226.559C307.936 223.388 308.405 220.212 308.672 217.024C308.917 214.091 309.045 211.149 309.178 208.099L309.178 208.097L309.178 208.096L309.178 208.094L309.178 208.093L309.179 208.092L309.179 208.091L309.179 208.089L309.179 208.088L309.179 208.086L309.179 208.084C309.229 206.937 309.28 205.775 309.337 204.592C309.37 204.211 309.396 203.829 309.422 203.447C309.481 202.585 309.541 201.723 309.672 200.87C309.777 200.192 309.927 199.52 310.078 198.847ZM175.064 287.309C175.233 287.446 175.62 287.535 175.811 287.457C176.679 287.103 177.563 286.77 178.448 286.436C180.604 285.622 182.761 284.808 184.704 283.694C188.173 281.707 191.557 279.602 194.942 277.497C197.598 275.845 200.254 274.193 202.951 272.597C208.834 269.117 213.991 264.879 219.149 260.641C220.154 259.815 221.159 258.99 222.17 258.169C223.737 256.897 225.213 255.531 226.686 254.166L226.687 254.166L226.859 254.007L227.225 253.668L227.415 253.492L227.645 253.28C229.399 251.666 231.137 250.038 232.876 248.409C233.63 247.702 234.384 246.996 235.14 246.29C235.682 245.784 236.225 245.279 236.768 244.774C238.74 242.941 240.712 241.107 242.623 239.224C242.848 239.002 242.566 237.894 242.308 237.824C241.225 237.53 240.122 237.29 239.019 237.051L239.019 237.051L239.019 237.051L239.018 237.051C237.62 236.747 236.222 236.443 234.866 236.029L234.174 235.819C228.56 234.109 222.938 232.397 217.444 230.409C212.412 228.589 207.751 226.089 203.583 222.917C203.519 222.868 203.22 222.933 203.188 223.003C201.984 225.603 199.745 227.375 197.497 229.154L197.497 229.154L197.497 229.154L197.497 229.154L197.496 229.154L197.496 229.155L197.496 229.155L197.496 229.155C196.984 229.56 196.471 229.966 195.97 230.382C193.611 232.341 191.269 234.349 189.202 236.548C187.865 237.969 186.728 239.542 185.592 241.113C185.174 241.691 184.757 242.268 184.329 242.838C183.847 243.481 183.338 244.114 182.828 244.747L182.828 244.748L182.827 244.748L182.827 244.748L182.827 244.749L182.826 244.749L182.826 244.75L182.826 244.75C181.574 246.305 180.321 247.862 179.463 249.575C177.55 253.398 174.584 256.444 171.487 259.412C168.443 262.329 164.295 263.416 160.199 264.488L160.192 264.49L160.185 264.492C159.994 264.542 159.803 264.592 159.613 264.642C159.428 264.691 159.243 264.74 159.058 264.789C157.554 265.189 156.006 265.458 154.458 265.728L154.458 265.728L154.457 265.728L154.457 265.728L154.456 265.728L154.456 265.728L154.456 265.728L154.455 265.728L154.451 265.729C153.603 265.876 152.755 266.024 151.914 266.193C151.7 266.236 151.508 266.365 151.315 266.493C151.226 266.553 151.137 266.613 151.046 266.664C151.145 266.77 151.246 266.906 151.348 267.042C151.566 267.336 151.784 267.63 151.978 267.618C153.956 267.492 155.433 268.402 156.885 269.295C157.272 269.534 157.657 269.771 158.05 269.987C159.964 271.041 161.844 272.176 162.959 274.139C163.683 275.412 164.656 276.575 165.626 277.734L165.626 277.734C165.923 278.09 166.221 278.445 166.51 278.803C167.702 280.275 168.948 281.713 170.305 283.278L170.307 283.28L170.594 283.612C170.933 283.894 171.272 284.177 171.611 284.459L171.614 284.462C172.758 285.417 173.902 286.372 175.064 287.309ZM272.702 243.186C273.912 243.762 275.202 244.201 276.492 244.64C279.034 245.505 281.576 246.37 283.516 248.287C284.105 248.869 284.784 249.377 285.463 249.885C285.905 250.215 286.346 250.546 286.764 250.897C288.146 252.06 288.624 253.614 289.099 255.161C289.131 255.265 289.163 255.368 289.195 255.472C289.233 255.593 289.271 255.714 289.309 255.834C290.615 259.897 290.319 264.1 289.173 267.996C289.099 268.248 289.025 268.5 288.951 268.752C287.425 273.958 285.876 279.241 282.633 283.912C282.257 284.454 282.06 284.744 283.094 284.77C285.875 284.842 288.656 284.935 291.436 285.028C294.499 285.131 297.562 285.233 300.626 285.307C302.548 285.353 304.472 285.342 306.396 285.331C307.721 285.323 309.047 285.316 310.372 285.327C313.843 285.356 317.216 284.907 320.375 283.59C320.5 283.537 320.63 283.484 320.762 283.43C321.841 282.989 323.063 282.49 323.55 281.698C324.792 279.679 325.671 277.457 326.472 275.252C327.645 272.025 328.806 268.777 329.623 265.469C330.321 262.644 330.674 259.73 330.893 256.838C330.959 255.968 330.793 255.087 330.627 254.204C330.496 253.501 330.364 252.797 330.347 252.095C330.281 249.342 328.823 247.101 327.365 244.858L327.266 244.705L327.109 244.464C326.77 243.94 326.335 243.466 325.899 242.992L325.899 242.992L325.898 242.992C325.558 242.621 325.217 242.25 324.921 241.854C322.581 238.724 320.25 235.588 317.92 232.452L317.917 232.447C316.269 230.229 314.621 228.012 312.97 225.796C312.811 225.584 312.607 225.398 312.402 225.213C312.352 225.167 312.301 225.121 312.251 225.075C312.207 225.034 312.164 224.994 312.121 224.952C312.03 225.077 311.922 225.199 311.815 225.322C311.579 225.589 311.344 225.856 311.275 226.155C311.115 226.847 311.009 227.549 310.903 228.251L310.903 228.252L310.903 228.253C310.813 228.85 310.723 229.448 310.6 230.04C309.882 233.473 308.043 236.111 304.426 237.809C299.44 240.149 294.081 241.148 288.604 241.711C285.447 242.036 282.231 242.088 279.051 241.995C277.139 241.939 275.233 241.728 273.326 241.517C272.294 241.403 271.261 241.289 270.227 241.199C269.949 241.175 269.66 241.25 269.371 241.325C269.237 241.36 269.103 241.395 268.97 241.42C269.052 241.478 269.133 241.538 269.214 241.597L269.214 241.597L269.214 241.597L269.214 241.597L269.214 241.597L269.215 241.598L269.215 241.598L269.215 241.598C269.418 241.747 269.622 241.895 269.834 242.033C269.879 242.062 269.929 242.083 269.992 242.11C270.091 242.152 270.219 242.206 270.4 242.322C270.643 242.412 270.889 242.497 271.135 242.581L271.135 242.581L271.135 242.581L271.135 242.581L271.135 242.581L271.135 242.581L271.136 242.581L271.136 242.581C271.669 242.764 272.202 242.948 272.702 243.186ZM338.623 24.5767C336.608 27.2134 335.391 30.2202 334.777 33.3811C334.153 36.593 334.066 39.8411 335.118 42.9762C335.74 44.8272 336.443 46.6566 337.146 48.4857C337.96 50.6031 338.773 52.7201 339.46 54.8702C339.884 56.1977 340.845 56.8192 341.905 57.1535C346.912 58.7309 352.351 56.8126 355.46 52.6953C356.303 51.5778 355.817 51.119 354.959 50.3377C353.798 49.2801 352.782 48.0551 351.918 46.785C350.628 44.8893 351.174 42.9565 352.652 41.4255C354.131 39.8934 356.351 39.5529 358.417 40.1948C360.778 40.9283 362.477 42.543 363.688 44.5204C363.745 44.613 363.785 44.7136 363.826 44.8142C363.845 44.8609 363.864 44.9077 363.884 44.9536C363.892 44.9396 363.899 44.9257 363.907 44.9118L363.926 44.8783L363.926 44.8778C363.956 44.8244 363.986 44.7709 364.007 44.7146C364.185 44.2268 364.358 43.7359 364.53 43.2448L364.53 43.2442C365.435 40.666 366.342 38.0809 368.17 35.8813C369.595 34.1666 371.13 32.4568 372.94 31.0882C374.292 30.065 375.963 29.3532 377.602 28.6547C377.842 28.5526 378.081 28.4507 378.318 28.3483C378.877 28.1065 379.436 27.8598 379.995 27.6129C382.342 26.5763 384.698 25.5356 387.169 24.843C387.585 24.7267 387.794 24.6693 387.891 24.6427L387.953 24.6258C387.962 24.6233 387.966 24.6221 387.965 24.6219C387.965 24.6217 387.96 24.6227 387.952 24.6244L387.952 24.6244C387.822 24.6503 386.985 24.8172 395.154 22.1819C406.56 18.5025 400.692 6.91168 397.315 4.36188C397.064 4.17198 396.664 3.96803 396.394 4.02032C396.151 4.06731 395.842 4.44617 395.817 4.69907C395.563 7.23285 391.412 11.1648 381.55 10.5543C374.801 10.1365 374.654 10.1605 374.331 10.2136C374.183 10.238 373.996 10.2687 373.108 10.265C370.982 10.2563 363.62 10.8694 362.132 11.2459C361.591 11.3826 360.884 11.5148 360.052 11.6703C356.087 12.4114 349.287 13.6825 344.142 18.5025C343.573 19.1218 342.987 19.7313 342.401 20.3409L342.401 20.3412C341.08 21.7154 339.76 23.0896 338.623 24.5767ZM365.594 49.7341C365.594 51.0156 365.307 52.2765 365.02 53.5371L365.02 53.5379C364.882 54.1437 364.744 54.7495 364.638 55.3576C364.621 55.4536 364.565 55.5441 364.509 55.6346C364.492 55.6622 364.475 55.6898 364.459 55.7176C364.451 55.7321 364.443 55.7467 364.435 55.7613L364.422 55.7142L364.412 55.682L364.399 55.6382C364.372 55.5508 364.346 55.4634 364.327 55.3746C364.197 54.754 364.075 54.1314 363.953 53.5089C363.678 52.1005 363.403 50.6921 363.027 49.3057C362.576 47.6437 362.074 45.9498 361.241 44.4251C360.278 42.6623 356.245 41.8304 354.26 42.7552C353.128 43.2826 352.585 44.5465 353.319 45.4648C354.014 46.3335 354.865 47.2215 355.878 47.7384C357.542 48.5873 358.083 50.0029 358.218 51.3906C358.472 54 355.411 57.6692 352.436 58.329C349.732 58.929 346.976 59.3462 344.222 59.7631L344.222 59.7632L344.218 59.7637C343.569 59.862 342.92 59.9602 342.272 60.0608C342.205 60.0712 342.139 60.0811 342.073 60.0907C341.206 60.2188 340.516 60.3207 340.791 61.4566C341.536 64.5402 341.78 67.6468 341.155 70.7834C341.117 70.9738 341.504 71.2726 341.751 71.4612C342.066 71.7021 342.397 71.929 342.728 72.1557C343.337 72.5726 343.945 72.989 344.448 73.4907C345.275 74.3153 346.046 75.1847 346.817 76.0543L346.818 76.0549L346.819 76.0554L346.819 76.056L346.819 76.0562L346.819 76.0564L346.82 76.0566L346.82 76.0567C347.349 76.6532 347.878 77.2498 348.425 77.8321C348.568 77.9843 349.143 78.0478 349.281 77.93C349.984 77.3293 350.668 76.7114 351.353 76.0936L351.354 76.0924C352.155 75.3694 352.956 74.6464 353.786 73.9511C355.794 72.2697 357.851 70.6346 359.934 69.0281C360.203 68.8201 360.575 68.7181 360.947 68.6162C361.118 68.5691 361.29 68.5221 361.451 68.4646C361.385 68.6015 361.32 68.7392 361.255 68.8768L361.251 68.8838C361.071 69.2662 360.891 69.6485 360.677 70.0154C360.64 70.0796 360.533 70.1055 360.42 70.1327C360.323 70.1561 360.222 70.1805 360.158 70.2309C360.123 70.2579 360.089 70.2841 360.055 70.3097C359.654 70.6158 359.359 70.8409 360.25 71.2206C361.192 71.6222 362.065 72.1543 362.937 72.6864C363.302 72.9088 363.667 73.1313 364.037 73.3441C369.732 76.6226 375.869 78.1621 382.661 77.1658C386.503 76.6023 389.14 74.774 390.312 71.392C391.433 68.1523 390.967 67.2098 387.506 65.9078C387.389 65.8635 387.271 65.8195 387.152 65.7756C385.327 65.0966 383.514 64.4222 383.036 62.4212C382.836 61.5846 384.061 60.9804 384.815 61.3954C384.874 61.4285 384.913 61.4626 384.922 61.4974C385.291 63.0063 386.571 63.5276 387.921 64.0713C390.405 65.0712 390.708 64.9313 390.708 62.6511C390.708 59.666 390.708 59.666 393.635 58.736C395.331 58.1974 395.604 57.6706 394.833 56.1973C393.67 53.9725 392.91 51.7058 393.232 49.1902C393.629 46.0901 393.96 42.9799 394.178 39.8662C394.318 37.8652 394.452 35.8177 394.132 33.8507C393.927 32.5912 393.424 31.3703 392.921 30.1498L392.921 30.1496L392.921 30.1481C392.705 29.6235 392.489 29.099 392.296 28.5714C391.844 27.331 390.754 26.8325 389.332 27.2913C388.443 27.5779 387.548 27.8543 386.654 28.1307C384.163 28.9003 381.672 29.6702 379.297 30.6631C376.797 31.7083 374.266 33.0047 372.322 34.7129C370.576 36.2478 365.594 43.9792 365.594 49.7341ZM163.449 290.676L163.455 290.675L163.465 290.673C165.756 290.22 168.047 289.766 170.333 289.294C170.662 289.226 170.97 289.074 171.277 288.922L171.279 288.921L171.28 288.921C171.323 288.899 171.367 288.878 171.41 288.856L171.451 288.836C171.468 288.828 171.484 288.82 171.501 288.812C171.569 288.78 171.638 288.748 171.707 288.719C171.585 288.655 171.461 288.593 171.338 288.531C171.051 288.387 170.764 288.243 170.501 288.071C170.211 287.88 169.964 287.63 169.723 287.386L169.723 287.386L169.71 287.372C169.024 286.677 168.329 285.989 167.633 285.301L167.631 285.3L167.631 285.299L167.631 285.299L167.631 285.299L167.63 285.299L167.63 285.298L167.63 285.298L167.629 285.298C165.934 283.621 164.238 281.944 162.69 280.165C161.158 278.405 159.94 276.409 158.738 274.44L158.709 274.391C158.117 273.421 157.444 273.011 156.306 273.367C151.464 274.879 146.452 275.705 141.439 276.53L141.437 276.531C138.823 276.961 136.209 277.392 133.619 277.92C129.373 278.786 108 282.074 106.139 282.193C105.233 282.251 104.327 282.334 103.422 282.416L103.42 282.416L103.419 282.416C101.658 282.576 99.8973 282.736 98.1384 282.718C93.6427 282.673 89.2359 283.107 84.8328 283.871C83.4462 284.112 82.0397 284.264 80.6336 284.417L80.633 284.417L80.6323 284.417L80.6316 284.417L80.6309 284.417L80.6302 284.417L80.6295 284.417L80.6288 284.417L80.6276 284.417C79.0205 284.592 77.414 284.766 75.8383 285.071C70.7632 286.055 69.063 289.93 70.3704 293.717C70.6215 294.445 71.5184 295.265 72.3235 295.52C75.9947 296.681 79.8378 296.983 83.7224 297.011C85.7224 297.025 87.722 297.107 89.7214 297.19L89.7236 297.19H89.7241H89.7245H89.725H89.7255H89.7259H89.7264C90.4888 297.222 91.2512 297.254 92.0136 297.282C94.8868 297.386 97.7599 297.493 100.633 297.6C102.864 297.684 105.094 297.767 107.325 297.849C107.483 297.854 107.642 297.852 107.801 297.85C107.96 297.848 108.119 297.846 108.278 297.852C109.062 297.881 109.847 297.928 110.632 297.976C112.35 298.081 114.068 298.186 115.772 298.091C118.445 297.944 121.109 297.661 123.773 297.378L123.78 297.378C125.015 297.247 126.249 297.116 127.485 296.998C128.244 296.926 129.005 296.867 129.766 296.808L129.767 296.808L129.767 296.808L129.768 296.808L129.768 296.808L129.769 296.808L129.769 296.808L129.77 296.808C131.149 296.701 132.528 296.594 133.893 296.409L134.581 296.315C138.073 295.841 141.572 295.367 145.018 294.687C147.693 294.159 150.35 293.555 153.064 292.938L153.066 292.937L153.07 292.936L153.076 292.935L153.077 292.935L153.079 292.934C155.062 292.484 157.076 292.026 159.151 291.585C159.195 291.575 159.239 291.563 159.283 291.552L159.387 291.525L159.512 291.492C159.771 291.424 160.03 291.356 160.293 291.303C161.345 291.093 162.397 290.885 163.449 290.676ZM281.411 357.147C283.056 355.035 284.612 352.863 286.121 350.67C287.492 348.676 288.775 346.633 290.056 344.59C291.203 342.762 292.394 340.956 293.585 339.15L293.585 339.149C296.349 334.958 299.112 330.766 301.331 326.294C302.609 323.719 304.089 321.223 305.569 318.728L305.57 318.727C306.275 317.537 306.981 316.348 307.664 315.15C307.986 314.585 308.315 314.023 308.643 313.461L308.644 313.46L308.644 313.46L308.644 313.459L308.644 313.459L308.644 313.458L308.645 313.458L308.645 313.458L308.645 313.457C309.545 311.916 310.445 310.375 311.218 308.785C311.802 307.583 312.313 306.35 312.825 305.118L312.825 305.117L312.825 305.117L312.826 305.116L312.826 305.115L312.827 305.114L312.827 305.113L312.827 305.112C313.614 303.216 314.401 301.322 315.446 299.547C317.126 296.696 318.239 293.684 319.354 290.671L319.354 290.67L319.355 290.669C319.716 289.691 320.078 288.713 320.459 287.741C320.518 287.59 320.556 287.432 320.594 287.274C320.612 287.201 320.629 287.127 320.649 287.054C320.559 287.07 320.468 287.084 320.377 287.098C320.179 287.128 319.981 287.158 319.79 287.209C319.407 287.311 319.026 287.435 318.646 287.559C317.856 287.816 317.067 288.073 316.26 288.129C313.244 288.342 310.21 288.433 307.183 288.432C305.312 288.432 303.441 288.366 301.57 288.3H301.569H301.569H301.568H301.567H301.567H301.566H301.566C300.358 288.257 299.151 288.214 297.943 288.189C297.719 288.185 297.368 288.436 297.277 288.641C297.167 288.891 297.056 289.141 296.946 289.39L296.945 289.391C296.189 291.097 295.433 292.804 294.772 294.541C293.127 298.865 291.53 303.206 289.954 307.551C287.952 313.068 285.488 318.392 282.773 323.675C280.256 328.573 278.38 333.788 277.189 339.156C276.632 341.662 275.809 344.123 274.987 346.58L274.987 346.582C274.789 347.174 274.591 347.766 274.397 348.358C273.787 350.217 273.115 352.059 272.442 353.901L272.441 353.903C272.344 354.169 272.247 354.436 272.15 354.702L271.991 355.139C271.899 355.392 271.807 355.646 271.716 355.899C271.166 357.426 271.649 358.851 272.991 359.037C274.486 359.243 276.03 359.168 277.711 359.073C279.238 358.884 280.549 358.256 281.411 357.147ZM61.7002 304.67C63.3594 302.228 65.0687 300.019 68.4417 299.359C69.6939 299.114 69.7631 298.53 68.9332 297.593C68.7511 297.387 68.5589 297.182 68.3657 296.976C67.6722 296.237 66.9656 295.483 66.6664 294.627C66.3429 293.701 66.406 292.655 66.468 291.627L66.468 291.627C66.4839 291.362 66.4998 291.099 66.509 290.839C66.6189 287.734 67.5993 285.084 71.0371 283.575C72.057 283.127 72.6694 282.453 71.6463 281.133C69.3409 278.158 66.2854 276.052 62.9167 274.228C61.5962 273.513 60.3804 273.938 59.8554 275.187C59.6273 275.729 59.3965 276.271 59.1657 276.813C58.4361 278.526 57.7063 280.239 57.0593 281.977C56.3488 283.885 55.673 285.803 54.9972 287.721L54.9969 287.722C54.2835 289.747 53.5702 291.771 52.8162 293.784C52.1935 295.446 51.6454 297.127 51.0971 298.808L51.0969 298.809C50.1061 301.847 49.1148 304.887 47.6818 307.821C44.3822 314.576 41.7152 321.562 40.4532 328.903C40.3865 329.291 40.4794 329.957 40.7361 330.074C41.1265 330.251 41.7934 330.186 42.2205 330C42.9325 329.689 43.6804 329.299 44.1789 328.767C45.7437 327.096 47.1993 325.342 48.6971 323.336C49.9298 321.572 51.1671 319.81 52.4045 318.048L52.4047 318.048L52.405 318.048L52.4053 318.047L52.4066 318.045L52.4102 318.04L52.4148 318.034L52.4271 318.016L52.4277 318.016L52.4278 318.015C55.5431 313.58 58.6585 309.145 61.7002 304.67ZM294.37 362.011L294.365 362.01C291.602 361.408 288.856 360.811 287.255 358.256C286.5 357.051 285.839 357.142 285.076 358.467C284.415 359.614 283.597 360.622 282.292 361.22C281.597 361.539 280.862 361.796 280.125 362.029C276.466 363.19 272.906 363.336 269.698 360.991C268.134 359.847 267.625 359.952 266.404 361.375C264.43 363.677 263.419 366.361 262.412 369.034L262.326 369.262C261.241 372.14 261.83 372.742 265.25 372.742H326.587C326.615 372.742 326.642 372.742 326.669 372.743C326.701 372.744 326.733 372.745 326.766 372.747C326.838 372.751 326.911 372.756 326.984 372.762C327.291 372.786 327.598 372.809 327.842 372.709C328.157 372.579 328.577 371.964 328.524 371.912C328.299 371.692 328.079 371.458 327.858 371.224C327.183 370.507 326.499 369.781 325.632 369.387C323.901 368.601 321.961 368.136 320.062 367.706C313.055 366.119 306.027 364.603 298.689 363.06C298.332 362.971 297.976 362.879 297.619 362.788C296.838 362.588 296.056 362.388 295.269 362.209C295.103 362.172 294.937 362.135 294.77 362.098C294.642 362.07 294.514 362.042 294.386 362.014L294.375 362.012L294.37 362.011ZM415.224 256.786C415.297 257.026 415.618 257.206 415.939 257.386C416.088 257.47 416.236 257.553 416.36 257.642C416.44 257.54 416.541 257.438 416.641 257.337C416.86 257.117 417.079 256.898 417.091 256.669C417.108 256.364 417.131 256.056 417.154 255.748L417.154 255.747C417.243 254.548 417.333 253.335 417.068 252.195C416.551 249.966 415.736 247.772 414.811 245.646C414.58 245.115 414.856 244.862 415.115 244.624C415.303 244.452 415.482 244.287 415.453 244.031C415.619 244.126 415.797 244.214 415.975 244.301C416.381 244.5 416.787 244.7 417.054 244.999C417.29 245.262 417.398 245.612 417.508 245.966C417.573 246.177 417.639 246.389 417.732 246.584C417.862 246.859 417.992 247.134 418.122 247.409L418.122 247.409L418.123 247.41L418.123 247.41L418.123 247.411L418.123 247.411L418.124 247.412L418.124 247.412C418.756 248.751 419.388 250.09 420.119 251.384C420.249 251.614 420.64 251.726 421.03 251.838C421.21 251.89 421.39 251.941 421.545 252.004C421.611 251.873 421.695 251.742 421.778 251.611C421.962 251.325 422.145 251.039 422.142 250.755C422.128 249.465 422.014 248.172 421.843 246.891C421.816 246.689 421.792 246.485 421.768 246.281C421.66 245.356 421.549 244.414 421.151 243.596C419.937 241.104 418.649 238.62 417.102 236.287C416.123 234.811 414.791 233.429 413.313 232.335C412.001 231.364 410.49 230.602 408.985 229.844C408.582 229.641 408.18 229.438 407.783 229.232C405.355 227.972 402.893 226.763 400.426 225.566C400.401 225.554 400.375 225.54 400.348 225.527L400.346 225.525C400.057 225.378 399.716 225.205 399.413 225.798C398.842 226.914 398.236 228.016 397.631 229.118C396.685 230.838 395.74 232.558 394.929 234.327L394.901 234.388L394.874 234.446C394.556 235.122 393.994 236.315 395.715 236.975C397.562 237.683 399.378 238.701 400.835 239.936C405.121 243.568 407.055 248.422 408.975 253.244L409.125 253.621C409.495 254.548 409.759 255.51 410.024 256.471L410.025 256.472L410.025 256.473L410.025 256.474C410.151 256.93 410.276 257.386 410.413 257.838C410.463 258.003 410.521 258.165 410.58 258.328L410.581 258.33C410.608 258.405 410.635 258.479 410.661 258.554C410.751 258.495 410.856 258.441 410.96 258.388C411.186 258.272 411.412 258.157 411.491 257.987C412.301 256.248 412.544 254.5 411.941 252.61C411.462 251.107 411.289 249.518 411.118 247.952L411.103 247.809C411.082 247.618 411.38 247.399 411.678 247.18C411.816 247.078 411.953 246.977 412.06 246.878C412.131 246.963 412.214 247.044 412.297 247.126L412.298 247.126L412.298 247.126L412.298 247.126C412.479 247.304 412.66 247.482 412.724 247.689C412.86 248.128 412.987 248.569 413.116 249.018L413.116 249.019C413.35 249.836 413.592 250.678 413.911 251.577C414.022 252.031 414.129 252.486 414.237 252.942C414.54 254.229 414.844 255.517 415.224 256.786ZM395.676 227.74C395.905 227.247 396.177 226.776 396.45 226.304C397.111 225.16 397.772 224.016 397.809 222.574C397.842 221.256 397.575 220.548 396.385 219.899C395.125 219.211 393.691 218.796 392.57 219.587C390.023 221.384 387.672 223.471 386.31 226.144C385.452 227.828 384.833 229.61 384.216 231.391C384.004 232.002 383.792 232.613 383.571 233.219C383.445 233.564 383.505 233.994 383.587 234.366C384.08 236.589 385.934 237.688 387.998 238.62C389.088 239.112 389.893 238.868 390.382 237.905C390.716 237.248 391.045 236.59 391.378 235.926L391.379 235.923L391.381 235.919C392.075 234.532 392.781 233.119 393.569 231.644C393.692 231.419 393.817 231.194 393.943 230.97C394.04 230.797 394.138 230.624 394.236 230.45C394.742 229.556 395.248 228.662 395.676 227.74ZM36.9605 328.124C38.0976 325.701 39.1775 323.247 40.0885 320.75C40.6976 319.08 41.2347 317.389 41.7718 315.698L41.772 315.698C42.2584 314.166 42.7448 312.635 43.2848 311.119C44.1323 308.739 45.0211 306.372 45.91 304.004C46.7408 301.791 47.5716 299.578 48.3685 297.356C49.8607 293.195 51.316 289.023 52.7713 284.851L52.7715 284.851C53.4255 282.976 54.0794 281.102 54.7367 279.228C54.9097 278.735 55.0853 278.243 55.2609 277.75L55.2613 277.749L55.2618 277.748C55.7283 276.439 56.1948 275.131 56.6131 273.81C56.6752 273.613 56.549 273.369 56.4227 273.125C56.3643 273.012 56.3059 272.9 56.2661 272.791C56.1369 272.868 55.9874 272.936 55.8379 273.004C55.5146 273.151 55.1912 273.298 55.0731 273.529C53.954 275.72 52.8604 277.926 51.8947 280.174C51.0057 282.243 50.2121 284.346 49.4189 286.448L49.4115 286.467L49.41 286.471L49.4085 286.475C49.2792 286.818 49.15 287.16 49.0203 287.503C48.8738 287.889 48.7268 288.276 48.5798 288.662L48.5797 288.663L48.5796 288.663L48.5764 288.671C47.7438 290.861 46.9108 293.051 46.1695 295.265C45.4022 297.557 44.6751 299.86 43.9479 302.162L43.9474 302.164L43.9471 302.165C43.4146 303.851 42.8821 305.537 42.3339 307.219C42.1326 307.837 41.9332 308.455 41.7338 309.073C40.8955 311.671 40.0568 314.271 39.0802 316.827C38.472 318.419 37.8291 320 37.1837 321.587L37.1835 321.587L37.1831 321.589C36.2817 323.805 35.3754 326.033 34.5526 328.319C35.7458 329.728 36.2022 329.741 36.9605 328.124ZM306.477 378.009C307.199 377.965 307.922 377.917 308.645 377.87C310.237 377.764 311.83 377.659 313.425 377.589C315.527 377.498 317.631 377.415 319.734 377.333H319.735H319.736H319.736H319.737H319.738H319.739H319.74L319.751 377.333C322.529 377.224 325.307 377.116 328.084 376.985C328.304 376.975 328.512 376.779 328.721 376.584C328.818 376.493 328.915 376.402 329.013 376.329C328.929 376.284 328.846 376.234 328.764 376.184C328.572 376.068 328.381 375.953 328.17 375.888C328.006 375.838 327.818 375.851 327.63 375.863C327.546 375.868 327.463 375.874 327.381 375.874H264.189C264.141 375.874 264.09 375.871 264.038 375.867L264.002 375.864L263.973 375.862L263.956 375.86L263.912 375.856L263.871 375.851C263.63 375.826 263.389 375.802 263.257 375.897C262.803 376.224 262.396 376.642 262.121 377.096C262.064 377.192 262.612 377.768 262.953 377.835C263.892 378.022 264.868 378.138 265.83 378.14C279.326 378.158 292.822 378.152 306.477 378.009ZM397.551 382.4L397.538 382.404C392.703 384.105 387.895 385.796 383.152 387.621C379.912 388.867 376.666 389.059 373.292 388.969C373.005 388.962 372.72 388.904 372.435 388.846C372.128 388.784 371.822 388.723 371.516 388.723C371.268 388.723 371.021 388.845 370.774 388.967C370.663 389.022 370.552 389.077 370.441 389.121C370.499 389.202 370.552 389.289 370.605 389.375C370.722 389.566 370.839 389.757 371.01 389.895C371.497 390.285 372.006 390.685 372.58 390.954C376.953 393.002 379.481 398.595 377.935 402.791C377.177 404.851 376.259 407.039 374.722 408.643C373.473 409.947 371.294 410.808 369.35 411.259C366.28 411.972 363.076 411.994 359.981 410.99C357.275 410.112 355.332 408.488 353.899 406.292C350.418 400.957 351.848 396.329 355.55 392.022C356.036 391.456 356.82 391.1 357.61 390.741C358.051 390.54 358.495 390.339 358.89 390.099C359.17 389.929 359.387 389.677 359.604 389.425C359.703 389.31 359.802 389.194 359.907 389.087C359.733 389.049 359.559 389.003 359.385 388.957C358.986 388.852 358.588 388.747 358.185 388.732C357.907 388.721 357.628 388.785 357.347 388.849L357.347 388.85C357.086 388.909 356.825 388.969 356.564 388.969L346.723 388.975H346.677C324.38 388.987 302.083 388.999 279.787 388.968C274.399 388.96 269.011 388.888 263.623 388.816C260.453 388.774 257.283 388.732 254.112 388.702C251.77 388.681 249.426 388.686 247.083 388.692C246.017 388.695 244.951 388.697 243.885 388.697C243.655 388.697 243.425 388.696 243.196 388.695C242.559 388.691 241.923 388.688 241.287 388.71C241.155 388.715 241.025 388.796 240.896 388.876C240.836 388.914 240.777 388.951 240.717 388.981C240.774 389.017 240.831 389.054 240.888 389.091C241.01 389.171 241.132 389.25 241.26 389.322C241.795 389.619 242.356 389.893 242.916 390.167C244.121 390.756 245.325 391.344 246.271 392.169C252.738 397.814 250.652 408.973 240.976 411.209C233.147 413.018 226.229 410.689 223.906 402.373C222.473 397.247 226.304 391.134 232.097 389.533C232.348 389.464 232.564 389.295 232.781 389.126C232.881 389.047 232.982 388.969 233.086 388.9C233.024 388.87 232.962 388.835 232.9 388.798L232.879 388.786L232.847 388.767C232.82 388.75 232.793 388.734 232.767 388.717C232.538 388.576 232.309 388.435 232.08 388.434C224.443 388.407 217.285 386.42 210.265 384.045C200.835 380.855 191.667 377.134 183.178 372.224L183.016 372.13C181.448 371.225 179.83 370.291 179.276 368.396C178.239 364.851 180.244 362.117 183.944 361.218C187.885 360.261 191.664 361.268 195.385 362.336C201.849 364.191 208.307 366.058 214.766 367.926C218.351 368.962 221.935 369.999 225.521 371.033L225.991 371.169C227.938 371.731 229.885 372.293 231.849 372.805C232.569 372.993 233.345 373.089 234.097 373.091C237.337 373.102 240.577 373.103 243.817 373.105C247.041 373.106 250.265 373.107 253.49 373.118C253.968 373.12 254.789 373.239 254.859 373.455C255.009 373.922 255.008 374.428 255.006 374.934L255.006 375.034C255.006 375.088 255.006 375.142 255.006 375.196C255.006 375.262 255.007 375.328 255.009 375.393C255.01 375.437 255.011 375.48 255.013 375.524C254.966 375.509 254.918 375.49 254.87 375.47C254.766 375.428 254.663 375.386 254.564 375.394C254.199 375.424 253.834 375.464 253.469 375.504C252.927 375.563 252.384 375.623 251.84 375.648C249.951 375.736 248.062 375.814 246.172 375.893C243.645 375.998 241.118 376.103 238.593 376.229C234.125 376.453 229.911 375.327 225.735 374.211L225.697 374.201C222.456 373.334 219.256 372.347 216.055 371.36C214.247 370.802 212.438 370.244 210.622 369.707C208.349 369.036 206.069 368.381 203.79 367.726C201.161 366.97 198.533 366.215 195.914 365.435C195.253 365.238 194.609 364.975 193.966 364.713L193.966 364.713L193.965 364.713L193.965 364.713L193.965 364.713L193.965 364.712L193.964 364.712L193.964 364.712C192.939 364.294 191.918 363.878 190.846 363.735C188.875 363.474 186.765 363.615 184.8 363.962C184.032 364.098 183.172 365.191 182.93 365.987C182.607 367.05 182.826 368.098 184.217 368.888C190.672 372.559 197.476 375.602 204.463 378.363C210.811 380.872 217.364 382.828 224.059 384.422C225.132 384.677 226.294 384.698 227.418 384.717C229.983 384.76 232.548 384.789 235.113 384.817C239.446 384.866 243.779 384.914 248.109 385.032C252.904 385.162 257.696 385.371 262.488 385.579C264.717 385.675 266.945 385.772 269.174 385.861C271.149 385.94 273.125 386.016 275.101 386.093L275.136 386.094H275.136H275.137H275.138H275.138C277.99 386.205 280.842 386.315 283.693 386.433C284.31 386.458 284.927 386.504 285.543 386.55L285.545 386.55L285.546 386.55L285.547 386.55L285.548 386.551C286.636 386.632 287.723 386.713 288.807 386.682C289.756 386.654 290.703 386.537 291.649 386.419L291.65 386.419L291.651 386.419C292.469 386.317 293.288 386.216 294.11 386.172C294.665 386.143 295.226 386.217 295.788 386.29L295.788 386.291C296.244 386.351 296.7 386.411 297.155 386.416L297.388 386.419C297.608 386.421 297.827 386.424 298.047 386.427L298.452 386.433L298.802 386.438C301.327 386.475 303.855 386.511 306.374 386.404C308.547 386.311 310.718 386.157 312.889 386.004H312.889H312.889H312.89H312.89H312.891H312.891H312.892C314.985 385.857 317.079 385.709 319.176 385.615C319.798 385.587 320.427 385.726 321.058 385.865C321.613 385.987 322.17 386.109 322.726 386.119C326.539 386.189 330.356 386.182 334.17 386.135C337.889 386.089 341.609 386.002 345.323 385.843C346.06 385.811 346.8 385.697 347.538 385.583L347.539 385.583L347.539 385.583C348.631 385.414 349.718 385.246 350.777 385.349C355.027 385.761 359.291 385.866 363.55 385.97C366.476 386.042 369.399 386.114 372.315 386.285C377.58 386.595 382.243 385.47 386.86 383.782C393.11 381.497 399.309 379.077 405.391 376.459C409.193 374.822 412.822 372.85 416.436 370.885L416.436 370.885L417.098 370.525C419.402 369.274 421.161 367.508 421.884 365.081C422.248 363.858 421.486 362.921 420.114 362.894C415.86 362.811 411.975 364.131 408.112 365.462C402.494 367.396 396.9 369.385 391.325 371.414C389.074 372.232 386.84 373.09 384.606 373.947L384.605 373.947L384.603 373.948L384.601 373.949L384.599 373.949L384.598 373.95L384.596 373.951L384.594 373.951C382.919 374.594 381.245 375.237 379.562 375.863C378.975 376.082 378.299 376.205 377.663 376.207C372.342 376.226 367.022 376.225 361.701 376.223C360.239 376.223 358.778 376.222 357.316 376.222C355.85 376.222 354.384 376.223 352.918 376.223C348.961 376.224 345.004 376.225 341.048 376.219C339.693 376.217 338.338 376.176 336.983 376.131C336.897 376.128 336.757 375.935 336.748 375.823C336.736 375.667 336.742 375.508 336.749 375.35C336.758 375.128 336.768 374.906 336.724 374.692C336.54 373.784 336.975 373.644 337.912 373.649C344.588 373.689 351.265 373.707 357.941 373.66C358.605 373.655 359.27 373.651 359.935 373.647H359.936C365.587 373.609 371.241 373.572 376.88 373.315C378.669 373.233 380.471 372.537 382.183 371.876L382.183 371.876C382.33 371.819 382.476 371.763 382.621 371.707C392.393 367.957 402.265 364.439 412.438 361.647C414.28 361.141 416.242 360.951 418.186 360.762H418.186L418.537 360.728L418.807 360.702C418.966 360.686 419.125 360.67 419.285 360.654C420.61 360.517 422.014 360.43 423.299 360.674C425.34 361.062 426.186 362.813 425.563 364.644C424.429 367.97 422.162 370.502 418.864 372.299C416.536 373.567 414.201 374.824 411.853 376.088L411.853 376.088L411.852 376.089L411.819 376.106L411.809 376.112L411.78 376.127L411.774 376.131L411.774 376.131C409.587 377.308 407.388 378.492 405.175 379.695C402.64 380.609 400.108 381.5 397.584 382.388L397.551 382.4ZM372.665 395.076C368.949 391.458 364.656 390.793 359.537 393.439C356.578 394.968 355.28 398.565 355.529 400.844C355.796 403.297 357.168 405.332 359.263 406.926C361.775 408.837 364.713 408.84 367.739 408.259C374.46 406.966 376.477 399.158 372.665 395.076ZM227.678 399.43C227.676 399.561 227.673 399.691 227.671 399.821C227.66 400.382 227.648 400.942 227.69 401.499C228.03 406.094 233.992 409.663 239.25 408.311C242.992 407.349 245.15 405.35 245.915 401.84C247.087 396.455 243.349 392.576 238.185 391.908C233.084 391.247 228.887 393.766 227.681 399.046C227.681 399.174 227.68 399.302 227.678 399.43ZM268.429 415.342L280.366 415.342H339.032C341.785 415.342 344.538 415.343 347.291 415.343C360.394 415.345 373.496 415.347 386.599 415.306C387.454 415.303 388.396 414.863 389.1 414.43C389.289 414.314 388.887 413.39 388.496 412.994C388.232 412.725 387.513 412.628 386.998 412.628C345.064 412.617 303.131 412.614 261.198 412.612C244.835 412.611 228.473 412.61 212.11 412.609C211.503 412.609 210.895 412.572 210.287 412.535H210.287H210.286H210.285H210.285H210.284C210.067 412.522 209.851 412.509 209.634 412.498C208.628 412.445 207.324 413.644 207.739 414.331C208.336 415.319 209.56 415.344 210.76 415.344C229.934 415.342 249.108 415.342 268.372 415.342H268.383H268.395H268.406H268.418H268.429ZM163.681 416.046L155.73 416.046H155.717H155.703H155.69H155.677H155.663C144.007 416.046 132.435 416.047 120.864 416.042C120.742 416.042 120.619 416.045 120.495 416.049C119.714 416.072 118.934 416.095 118.622 415.185C118.261 414.13 118.756 413.364 120.071 413.227C120.321 413.201 120.576 413.208 120.83 413.214C120.947 413.218 121.064 413.221 121.181 413.221L133.239 413.221H133.675C154.143 413.221 174.611 413.221 195.079 413.217L195.188 413.217L195.281 413.216C196.347 413.211 197.356 413.206 197.31 414.494C197.273 415.56 196.566 416.046 194.921 416.046C187.057 416.046 179.193 416.046 171.26 416.046H171.237H171.214H171.19H163.681ZM440.232 416.05L448.586 416.05C450.366 416.05 452.14 416.051 453.908 416.051C460.696 416.052 467.404 416.053 474.112 416.039C474.808 416.038 475.515 415.913 476.193 415.772C476.381 415.733 476.568 415.44 476.613 415.243C476.956 413.723 476.404 413.226 474.413 413.226C449.785 413.226 425.157 413.226 400.529 413.226C400.413 413.226 400.296 413.222 400.178 413.217C399.922 413.207 399.666 413.197 399.421 413.234C398.065 413.44 397.58 414.281 398.12 415.301C398.533 416.082 399.298 416.067 400.068 416.052C400.112 416.051 400.157 416.05 400.201 416.049C400.263 416.048 400.325 416.048 400.387 416.048C413.498 416.051 426.608 416.051 439.806 416.05H439.816H439.826H439.837H440.232ZM382.78 38.8797C383.057 38.8544 384.356 39.0353 385.958 39.2583C388.149 39.5633 390.905 39.947 392.383 39.9895C393.864 40.0321 392.459 41.4505 392.214 41.4598C388.947 41.5839 381.866 39.6542 382.78 38.8797ZM387.551 50.0685C386.168 49.5999 386.829 45.8085 388.201 45.8085C389.556 45.8085 388.902 50.5259 387.551 50.0685ZM367.618 397.71C368.815 400.138 368.733 401.131 367.309 402.451C366.336 403.353 364.573 403.506 363.468 402.785C362.288 402.015 361.741 400.194 362.31 398.931C363.311 396.71 365.512 396.167 367.618 397.71ZM239.49 397.897C237.631 396.358 235.78 396.444 233.506 398.437C232.678 400.152 233.084 401.969 236.154 402.453C237.807 402.714 238.786 402.277 239.7 401.392C240.65 400.471 240.378 398.633 239.49 397.897Z" fill="#00160A"/>
<path fill-rule="evenodd" clip-rule="evenodd" d="M347.338 88.7229C344.574 87.9973 343.918 84.248 341.13 83.6003C338.372 82.9596 335.722 85.8812 332.972 85.2141C331.101 84.7604 330.228 82.9135 329.193 81.449C328.186 80.024 326.063 78.7378 324.548 79.6575L324.423 79.7393C322.322 81.2217 319.169 80.2852 317.052 78.8192C314.935 77.3533 313.14 75.3772 310.598 74.623C311.932 73.445 314.244 74.2998 315.536 75.5153C316.829 76.7307 317.88 78.3322 319.675 78.8184C322.425 79.5634 325.523 77.2788 328.119 78.381C329.733 79.0665 330.389 80.7597 331.356 82.1037C332.322 83.4477 334.425 84.5742 335.797 83.5509C339.128 81.0673 345.079 82.6417 346.362 86.3458C346.734 87.4201 348.379 88.9963 347.338 88.7229Z" fill="#E7EAEE"/>
<path fill-rule="evenodd" clip-rule="evenodd" d="M182.47 370.236C190.149 374.282 214.203 386.202 231.836 386.597L377.683 387.008C377.683 387.008 454.372 362.884 398.302 371.986C395.129 372.501 386.04 377.363 371.427 378.423C344.714 380.36 231.836 379.122 231.836 379.122C231.836 379.122 180.45 369.171 182.47 370.236Z" fill="#E7EAEE"/>
<path fill-rule="evenodd" clip-rule="evenodd" d="M57.2158 289.977C57.3954 289.798 57.6134 289.671 57.7485 289.721C59.2845 290.29 60.1704 289.796 60.637 288.439C60.7144 288.214 61.1089 288.075 61.3568 287.896C61.5848 288.168 62.0047 288.44 62.0056 288.712C62.0088 289.617 62.4479 290.042 63.4091 290.311C63.8189 290.426 64.0613 291.013 64.3798 291.385C64.059 291.451 63.5752 291.427 63.4516 291.603C63.2007 291.96 63.0692 292.419 63.0313 292.847C62.9991 293.21 63.2026 293.585 63.2383 293.959C63.285 294.451 63.1968 294.811 62.5492 294.316C61.2562 293.327 60.1342 293.698 59.0298 294.63C58.7621 294.857 58.2909 294.893 57.9132 295.016C57.9823 294.709 58.0029 294.385 58.1286 294.097C58.7874 292.588 58.3323 291.292 57.2158 289.977Z" fill="#FFB61D"/>
<ellipse cx="374.024" cy="59.344" rx="5.57201" ry="4.984" fill="#FFB61D"/>
<path fill-rule="evenodd" clip-rule="evenodd" d="M294.298 103.707L294.939 104.591L295.151 104.877C296.494 106.639 298.534 108.371 300.802 107.857C306.84 106.491 313.709 108.876 317.133 113.528C318.825 115.828 322.585 115.377 325.658 114.788L326.063 114.708C329.146 114.097 333.408 114.385 334.187 117.057L334.227 117.21C334.587 118.748 336.752 119.216 338.534 119.176L339.086 119.158C343.567 119.158 344.153 121.362 344.154 121.135C344.154 121.135 334.303 120.468 332.23 117.479L332.103 117.288C330.783 115.22 327.448 115.556 324.84 116.26L324.122 116.46L323.762 116.554C321.216 117.192 318.125 117.423 316.847 115.458C313.915 110.948 307.805 108.268 302.021 108.954C300.532 109.131 298.989 109.505 297.563 109.083C294.153 108.073 293.707 103.363 290.352 102.215C286.119 100.766 282.019 106.27 277.638 105.231C280.303 103.413 283.257 101.934 286.385 100.854C287.433 100.491 288.545 100.169 289.66 100.29C291.726 100.514 293.113 102.102 294.298 103.707ZM348.09 109.141C347.667 110.305 347.356 111.339 347.149 112.216C346.72 109.688 343.91 107.35 341.262 108.168L341.109 108.219C339.428 108.818 337.648 107.575 336.561 106.281L336.3 105.967L335.908 105.485C335.03 104.411 334.084 103.352 332.677 103.047C330.104 102.488 327.834 104.779 325.204 105.052C319.119 105.685 316.077 95.9398 310.102 97.149C308.795 97.4134 307.665 98.214 306.338 98.3762C302.674 98.8239 300.709 94.657 297.621 92.8373C295.297 91.4677 292.018 91.5506 289.785 93.0352C289.898 90.6557 293.516 89.6071 295.986 90.5024C298.456 91.3977 300.151 93.4106 302.202 94.9319C304.202 96.4151 307.169 97.4339 309.346 96.227L309.512 96.1297C312.131 94.5079 315.635 96.565 317.681 98.7496L318.424 99.5455C320.291 101.534 322.425 103.599 325.224 103.408C327.795 103.233 329.983 101.091 332.533 101.433C336.248 101.933 337.766 107.288 341.501 106.926C343.902 106.693 346.399 107.414 348.194 108.858L348.09 109.141ZM350.019 97.9353C349.419 98.6868 348.818 99.2904 348.215 99.7462L348.014 99.8926L347.512 99.5714C345.069 98.0191 342.401 96.5086 339.431 96.5712C338.346 96.594 337.235 96.8283 336.194 96.5549C333.43 95.8293 332.774 92.08 329.986 91.4324C327.228 90.7916 324.578 93.7132 321.828 93.0461C319.958 92.5924 319.084 90.7455 318.049 89.281C317.042 87.856 314.919 86.5698 313.404 87.4895L313.279 87.5713C311.178 89.0537 308.025 88.1172 305.908 86.6513C303.791 85.1853 301.996 83.2092 299.454 82.4551C300.788 81.2771 303.1 82.1319 304.392 83.3473C305.685 84.5628 306.736 86.1643 308.531 86.6505C311.281 87.3954 314.379 85.1108 316.975 86.213C318.589 86.8985 319.245 88.5918 320.212 89.9357C321.178 91.2797 323.281 92.4062 324.654 91.383C327.984 88.8993 333.935 90.4737 335.218 94.1778C335.59 95.2521 337.19 95.5022 338.425 95.2863C339.66 95.0705 340.929 94.5889 342.129 94.9271C343.655 95.3571 344.437 96.9445 345.907 97.5089C347.437 98.096 349.266 97.3494 350.289 96.1677L350.392 96.0439C351.215 95.0124 350.83 96.9197 350.019 97.9353Z" fill="#FFB61D"/>
<path fill-rule="evenodd" clip-rule="evenodd" d="M317.971 126.183L318.431 126.304C319.049 126.472 319.513 126.721 320.055 127.131L320.323 127.342L320.663 127.619C320.828 127.753 320.957 127.854 321.088 127.95C321.991 128.612 323.013 129.022 324.718 129.264C325.861 129.427 326.667 129.264 328.057 128.685L328.558 128.471C330.804 127.501 332.11 127.231 334.216 127.664C336.015 128.034 336.841 128.657 337.513 129.829L337.683 130.14C338.004 130.74 339.042 131.295 339.86 131.733C340.474 132.061 340.965 132.324 340.94 132.491C340.881 132.88 337.083 132.25 336.328 130.902L336.164 130.6C335.673 129.694 335.225 129.333 333.859 129.052C332.258 128.723 331.287 128.895 329.499 129.647L328.998 129.862C327.184 130.642 326.073 130.899 324.468 130.671C322.484 130.389 321.2 129.873 320.079 129.051C320.001 128.994 319.926 128.937 319.846 128.875L319.18 128.338C318.713 127.966 318.395 127.783 317.966 127.666L317.703 127.595C316.592 127.303 314.049 128.059 312.195 128.609C311.033 128.955 310.142 129.219 310.045 129.095C309.836 128.826 315.757 125.651 317.971 126.183ZM317.699 137.005L318.126 137.111C318.699 137.259 319.13 137.478 319.632 137.838L319.88 138.023L320.196 138.267C320.349 138.384 320.468 138.473 320.59 138.558C321.427 139.139 322.375 139.5 323.956 139.713C325.016 139.855 325.763 139.712 327.053 139.204L327.517 139.015C329.6 138.163 330.811 137.926 332.764 138.307C334.432 138.632 335.199 139.179 335.822 140.209L335.979 140.482C336.277 141.01 337.239 141.497 337.998 141.882L337.998 141.882L337.998 141.882L337.998 141.882C338.567 142.171 339.023 142.401 338.999 142.548C338.945 142.89 335.423 142.337 334.722 141.152L334.57 140.886C334.115 140.09 333.699 139.773 332.433 139.526C330.948 139.237 330.048 139.388 328.39 140.049L327.925 140.238C326.243 140.923 325.213 141.149 323.724 140.949C321.884 140.701 320.694 140.248 319.654 139.526C319.582 139.475 319.512 139.425 319.438 139.371L318.821 138.898C318.387 138.571 318.092 138.411 317.695 138.308L317.45 138.245C316.42 137.989 314.062 138.653 312.343 139.137C311.265 139.44 310.439 139.673 310.349 139.564C310.156 139.328 315.646 136.537 317.699 137.005ZM318.49 148.503L318.086 148.397C316.148 147.929 310.962 150.72 311.145 150.956C311.229 151.065 312.01 150.832 313.028 150.529C314.651 150.045 316.879 149.381 317.852 149.637L318.082 149.7C318.458 149.803 318.736 149.963 319.146 150.29L319.729 150.763C319.799 150.817 319.865 150.867 319.933 150.918C320.915 151.64 322.039 152.093 323.777 152.341C325.183 152.541 326.156 152.315 327.745 151.63L328.183 151.441C329.749 150.78 330.6 150.629 332.002 150.918C333.198 151.165 333.591 151.482 334.02 152.278L334.164 152.544C334.825 153.729 338.152 154.282 338.203 153.94C338.225 153.793 337.795 153.563 337.258 153.274L337.258 153.274C336.541 152.889 335.632 152.402 335.351 151.874L335.202 151.601C334.614 150.571 333.89 150.024 332.314 149.699C330.47 149.318 329.326 149.555 327.359 150.408L326.921 150.596C325.703 151.104 324.997 151.247 323.996 151.105C322.502 150.892 321.607 150.531 320.817 149.95C320.702 149.865 320.589 149.776 320.444 149.659L320.146 149.415L319.912 149.23C319.437 148.87 319.03 148.651 318.49 148.503ZM318.086 161.925L318.49 162.031C319.03 162.179 319.437 162.398 319.912 162.758L320.146 162.943L320.444 163.187C320.589 163.304 320.702 163.393 320.817 163.478C321.607 164.059 322.502 164.42 323.996 164.633C324.997 164.775 325.703 164.632 326.921 164.124L327.359 163.936C329.326 163.083 330.47 162.846 332.314 163.227C333.89 163.552 334.614 164.099 335.202 165.129L335.351 165.402C335.632 165.93 336.541 166.417 337.258 166.802C337.795 167.091 338.225 167.321 338.203 167.468C338.152 167.81 334.825 167.257 334.164 166.072L334.02 165.806C333.591 165.01 333.198 164.693 332.002 164.446C330.6 164.157 329.749 164.308 328.183 164.969L327.745 165.158C326.156 165.843 325.183 166.069 323.777 165.869C322.039 165.621 320.915 165.168 319.933 164.446C319.865 164.395 319.799 164.345 319.729 164.291L319.146 163.818C318.736 163.491 318.458 163.331 318.082 163.228L317.852 163.165C316.879 162.909 314.652 163.573 313.028 164.057L313.028 164.057L313.028 164.057C312.01 164.36 311.229 164.593 311.145 164.484C310.962 164.248 316.148 161.457 318.086 161.925ZM319.718 175.559L319.291 175.453C317.238 174.985 311.748 177.776 311.941 178.012C312.031 178.121 312.857 177.888 313.935 177.585L313.935 177.585L313.935 177.585L313.935 177.585C315.654 177.101 318.012 176.437 319.042 176.693L319.287 176.756C319.684 176.859 319.979 177.019 320.413 177.346L321.03 177.819C321.104 177.873 321.174 177.923 321.246 177.974C322.286 178.696 323.476 179.149 325.316 179.397C326.805 179.597 327.835 179.371 329.517 178.686L329.982 178.497C331.64 177.836 332.54 177.685 334.025 177.974C335.291 178.221 335.707 178.538 336.162 179.334L336.314 179.6C337.015 180.785 340.537 181.338 340.591 180.996C340.615 180.849 340.159 180.619 339.59 180.33C338.831 179.945 337.869 179.458 337.571 178.93L337.414 178.657C336.791 177.627 336.024 177.08 334.356 176.755C332.403 176.374 331.192 176.611 329.109 177.464L328.645 177.652C327.355 178.16 326.608 178.303 325.548 178.161C323.967 177.948 323.019 177.587 322.182 177.006C322.06 176.921 321.941 176.832 321.788 176.715L321.472 176.471L321.224 176.286C320.722 175.926 320.291 175.707 319.718 175.559ZM323.63 187.97L324.071 188.009C324.664 188.066 325.131 188.214 325.696 188.491L325.976 188.635L326.334 188.825C326.508 188.917 326.642 188.986 326.779 189.051C327.716 189.493 328.719 189.701 330.318 189.665C331.39 189.641 332.098 189.384 333.269 188.683L333.69 188.426C335.576 187.263 336.722 186.841 338.719 186.912C340.425 186.973 341.286 187.393 342.1 188.311L342.308 188.556C342.704 189.029 343.746 189.36 344.568 189.621C345.185 189.816 345.678 189.973 345.683 190.121C345.696 190.467 342.12 190.468 341.2 189.41L340.999 189.172C340.396 188.459 339.925 188.211 338.63 188.165C337.112 188.111 336.254 188.399 334.75 189.308L334.329 189.566C332.805 190.502 331.834 190.885 330.33 190.918C328.47 190.96 327.209 190.699 326.045 190.149L325.803 190.03L325.103 189.661C324.612 189.406 324.291 189.294 323.879 189.254L323.626 189.231C322.562 189.139 320.369 190.159 318.77 190.902C317.767 191.368 316.998 191.726 316.889 191.632C316.652 191.429 321.518 187.829 323.63 187.97ZM333.672 197.19L333.318 197.22C331.63 197.397 328.274 200.716 328.488 200.835C328.587 200.89 329.146 200.523 329.875 200.043C331.038 199.279 332.632 198.23 333.486 198.156L333.688 198.14C334.019 198.114 334.288 198.155 334.71 198.279L335.313 198.459L335.521 198.515C336.515 198.768 337.546 198.794 339.01 198.515C340.194 198.289 340.909 197.876 341.986 196.979L342.284 196.731C343.349 195.857 343.987 195.528 345.194 195.366C346.224 195.228 346.63 195.349 347.202 195.798L347.394 195.948C348.264 196.61 351.088 196.133 351.031 195.878C351.007 195.769 350.596 195.718 350.083 195.655C349.398 195.571 348.53 195.465 348.153 195.166L347.955 195.013C347.188 194.44 346.451 194.243 345.095 194.425C343.508 194.638 342.659 195.104 341.327 196.218L341.029 196.465C340.199 197.141 339.674 197.426 338.831 197.587C337.573 197.827 336.752 197.806 335.952 197.602C335.835 197.573 335.719 197.54 335.57 197.495L335.261 197.401L335.02 197.331C334.537 197.201 334.148 197.153 333.672 197.19ZM342.074 203.628L342.428 203.598C342.904 203.561 343.293 203.609 343.776 203.739L344.017 203.809L344.326 203.903C344.475 203.948 344.591 203.981 344.708 204.01C345.508 204.214 346.329 204.235 347.587 203.995C348.43 203.834 348.955 203.549 349.785 202.873L350.083 202.626C351.415 201.512 352.264 201.046 353.851 200.833C355.207 200.651 355.944 200.848 356.711 201.421L356.909 201.574C357.286 201.873 358.154 201.979 358.839 202.063C359.352 202.126 359.763 202.177 359.787 202.286C359.844 202.541 357.02 203.018 356.15 202.356L355.958 202.206C355.386 201.757 354.98 201.636 353.95 201.774C352.743 201.936 352.105 202.265 351.04 203.139L350.742 203.387C349.665 204.284 348.95 204.697 347.766 204.923C346.302 205.202 345.271 205.176 344.277 204.923L344.069 204.867L343.466 204.687C343.044 204.563 342.775 204.522 342.444 204.548L342.242 204.564C341.388 204.638 339.794 205.687 338.631 206.451C337.902 206.931 337.343 207.298 337.244 207.243C337.03 207.124 340.386 203.805 342.074 203.628ZM353.634 210.526L353.356 210.594C352.035 210.948 349.875 214.025 350.065 214.093C350.153 214.125 350.541 213.76 351.049 213.285L351.049 213.285C351.857 212.527 352.967 211.488 353.637 211.321L353.797 211.283C354.057 211.221 354.279 211.219 354.636 211.265L355.146 211.333L355.321 211.352C356.156 211.429 356.984 211.319 358.11 210.912C359.021 210.582 359.528 210.162 360.248 209.308L360.446 209.073C361.16 208.24 361.619 207.897 362.558 207.615C363.359 207.375 363.703 207.42 364.231 207.707L364.408 207.803C365.208 208.222 367.39 207.484 367.305 207.288C367.268 207.204 366.932 207.215 366.511 207.23C365.951 207.249 365.24 207.273 364.892 207.082L364.709 206.984C364.006 206.623 363.386 206.559 362.33 206.875C361.095 207.246 360.49 207.725 359.6 208.783L359.401 209.018C358.844 209.664 358.47 209.958 357.821 210.192C356.853 210.543 356.194 210.63 355.522 210.568C355.424 210.559 355.326 210.547 355.199 210.53L354.938 210.494L354.734 210.469C354.327 210.425 354.009 210.436 353.634 210.526ZM362.203 216.347L362.481 216.278C362.856 216.189 363.174 216.178 363.581 216.221L363.785 216.246L364.047 216.282C364.173 216.3 364.271 216.311 364.369 216.32C365.041 216.382 365.7 216.295 366.668 215.945C367.317 215.71 367.692 215.416 368.249 214.771L368.447 214.536C369.337 213.478 369.942 212.998 371.178 212.628C372.233 212.311 372.853 212.376 373.557 212.737L373.739 212.834C374.087 213.026 374.798 213.001 375.359 212.982C375.779 212.968 376.115 212.956 376.152 213.04C376.238 213.237 374.055 213.975 373.255 213.555L373.078 213.46C372.55 213.173 372.206 213.127 371.405 213.368C370.466 213.649 370.007 213.992 369.293 214.826L369.095 215.061C368.375 215.914 367.869 216.335 366.957 216.664C365.831 217.072 365.003 217.181 364.168 217.104L363.994 217.086L363.483 217.018C363.126 216.972 362.904 216.973 362.644 217.035L362.485 217.074C361.814 217.24 360.705 218.28 359.896 219.038L359.896 219.038C359.389 219.513 359 219.877 358.912 219.846C358.722 219.778 360.882 216.701 362.203 216.347ZM372.829 221.974L372.551 222.043C371.23 222.397 369.07 225.474 369.26 225.542C369.348 225.573 369.737 225.209 370.244 224.734C371.053 223.976 372.162 222.936 372.833 222.77L372.992 222.731C373.252 222.669 373.474 222.668 373.831 222.714L374.341 222.782L374.516 222.8C375.351 222.877 376.179 222.768 377.305 222.36C378.216 222.031 378.723 221.61 379.443 220.757L379.641 220.522C380.355 219.688 380.814 219.345 381.753 219.063C382.554 218.823 382.898 218.869 383.426 219.156L383.603 219.251C384.403 219.671 386.586 218.933 386.5 218.736C386.463 218.652 386.127 218.664 385.707 218.678C385.146 218.697 384.435 218.722 384.087 218.53L383.905 218.433C383.201 218.072 382.581 218.007 381.525 218.324C380.29 218.694 379.685 219.174 378.795 220.232L378.597 220.467C378.04 221.112 377.665 221.406 377.016 221.641C376.048 221.991 375.389 222.078 374.717 222.016C374.619 222.007 374.521 221.996 374.395 221.978L374.133 221.942L373.929 221.917C373.522 221.874 373.204 221.885 372.829 221.974Z" fill="#FFB61D"/>
</svg>
